<svg width="178" height="36" viewBox="0 0 178 36" fill="none" xmlns="http://www.w3.org/2000/svg">
<path d="M1.30412 24.0796C0.928156 24.0796 0.610938 23.9718 0.364213 23.7455C0.117488 23.5191 0 23.2281 0 22.8832V1.20857C0 0.863673 0.117488 0.572666 0.364213 0.346327C0.610938 0.119988 0.928156 0.012207 1.30412 0.012207C1.68008 0.012207 1.9973 0.130766 2.24402 0.346327C2.49075 0.572666 2.60824 0.863673 2.60824 1.20857V10.8226H19.0096V1.20857C19.0096 0.863673 19.1271 0.572666 19.3738 0.346327C19.6205 0.119988 19.9377 0.012207 20.3137 0.012207C20.6897 0.012207 21.0069 0.130766 21.2536 0.346327C21.5003 0.572666 21.6178 0.863673 21.6178 1.20857V22.8832C21.6178 23.2281 21.4886 23.5191 21.2536 23.7455C21.0069 23.9718 20.6897 24.0796 20.3137 24.0796C19.9377 24.0796 19.6205 23.9718 19.3738 23.7455C19.1271 23.5191 19.0096 23.2281 19.0096 22.8832V12.989H2.60824V22.8832C2.60824 23.2281 2.479 23.5191 2.24402 23.7455C1.9973 23.961 1.68008 24.0796 1.30412 24.0796Z" fill="black"/>
<path d="M36.3539 24.2273C34.5446 24.2273 32.935 23.8609 31.5369 23.128C30.1388 22.3951 29.0344 21.3819 28.2472 20.0886C27.4483 18.7952 27.0488 17.3186 27.0488 15.648C27.0488 13.9666 27.4248 12.4793 28.1767 11.1967C28.9286 9.91408 29.9625 8.90094 31.2902 8.15726C32.606 7.41357 34.1334 7.04712 35.8604 7.04712C37.564 7.04712 39.0444 7.4028 40.3132 8.11415C41.5821 8.8255 42.5573 9.8063 43.2504 11.0566C43.9436 12.3068 44.2961 13.7403 44.2961 15.3462C44.2961 15.6803 44.1786 15.939 43.9554 16.133C43.7321 16.327 43.4384 16.424 43.086 16.424H28.7877V14.4516H43.3327L41.8876 15.4109C41.9111 14.2145 41.6761 13.1475 41.1827 12.2098C40.6892 11.2613 39.9843 10.5284 39.0796 9.98953C38.175 9.45063 37.0941 9.19195 35.8369 9.19195C34.5563 9.19195 33.4402 9.47218 32.4768 10.0219C31.5134 10.5715 30.7732 11.3476 30.2445 12.3176C29.7158 13.2984 29.4573 14.4085 29.4573 15.6588C29.4573 16.909 29.7511 18.0192 30.3502 18.9892C30.9377 19.9592 31.7601 20.7137 32.7823 21.2741C33.8161 21.8238 35.0028 22.1041 36.3421 22.1041C37.1528 22.1041 37.9635 21.9747 38.7741 21.7161C39.5966 21.4574 40.2427 21.134 40.7362 20.746C40.9829 20.5628 41.2649 20.4658 41.5821 20.455C41.8993 20.4442 42.1696 20.5197 42.3928 20.6814C42.6865 20.9293 42.8392 21.1987 42.851 21.4789C42.8627 21.7699 42.7335 22.0178 42.4633 22.2226C41.7231 22.7939 40.7832 23.2789 39.6436 23.6561C38.5039 24.0333 37.3995 24.2273 36.3539 24.2273Z" fill="black"/>
<path d="M52.6095 24.0794C51.7166 24.0794 50.9177 23.853 50.2127 23.4003C49.5078 22.9477 48.9556 22.3225 48.5679 21.525C48.1802 20.7274 47.9805 19.8005 47.9805 18.755V1.18677C47.9805 0.841873 48.098 0.550866 48.3329 0.335305C48.5679 0.119744 48.8734 0.0119629 49.2611 0.0119629C49.6371 0.0119629 49.9543 0.119744 50.1892 0.335305C50.4242 0.550866 50.5417 0.831095 50.5417 1.18677V18.755C50.5417 19.6388 50.7414 20.3609 51.1291 20.9106C51.5169 21.4603 52.0221 21.7405 52.6213 21.7405H53.4554C53.7961 21.7405 54.0546 21.8483 54.2661 22.0639C54.4658 22.2794 54.5716 22.5596 54.5716 22.9153C54.5716 23.2602 54.4306 23.5512 54.1486 23.7668C53.8666 23.9824 53.5024 24.0901 53.056 24.0901H52.6095V24.0794Z" fill="black"/>
<path d="M59.4321 31.287C59.0326 31.287 58.7154 31.1792 58.4687 30.9636C58.222 30.7481 58.1162 30.4571 58.1162 30.0798V15.5294C58.1397 13.9235 58.5627 12.4793 59.3733 11.1967C60.1958 9.91408 61.3001 8.90094 62.6982 8.15726C64.0964 7.41357 65.6707 7.04712 67.4213 7.04712C69.2188 7.04712 70.8167 7.42435 72.2265 8.16804C73.6364 8.9225 74.7525 9.93564 75.575 11.2398C76.3974 12.5331 76.7968 13.999 76.7968 15.648C76.7968 17.2755 76.3974 18.7305 75.5984 20.0239C74.7995 21.3173 73.7186 22.3412 72.3558 23.0956C70.9929 23.8501 69.4421 24.2166 67.715 24.2166C66.2111 24.2166 64.8483 23.9256 63.6382 23.3328C62.4163 22.7507 61.4411 21.9747 60.7009 21.0047V30.069C60.7009 30.4355 60.5835 30.7265 60.3485 30.9528C60.1135 31.1792 59.8198 31.287 59.4321 31.287ZM67.433 22.0717C68.7371 22.0717 69.9003 21.7915 70.9224 21.2418C71.9563 20.6921 72.767 19.9269 73.3544 18.9461C73.9419 17.9653 74.2473 16.8767 74.2473 15.6588C74.2473 14.4301 73.9536 13.3307 73.3544 12.3607C72.7552 11.3907 71.9446 10.6254 70.9224 10.065C69.8885 9.50452 68.7254 9.21351 67.433 9.21351C66.1524 9.21351 65.001 9.49374 63.9671 10.065C62.9332 10.6254 62.1343 11.3907 61.5469 12.3607C60.9594 13.3307 60.6775 14.4301 60.6775 15.6588C60.6775 16.8767 60.9712 17.9653 61.5469 18.9461C62.1343 19.9269 62.9332 20.6921 63.9671 21.2418C65.001 21.7915 66.1524 22.0717 67.433 22.0717Z" fill="black"/>
<path d="M85.1274 24.0782C84.7632 24.0782 84.4577 23.9596 84.1992 23.7225C83.9408 23.4854 83.8115 23.2051 83.8115 22.871V1.20714C83.8115 0.862244 83.9408 0.571237 84.1992 0.344898C84.4577 0.118559 84.7632 0.0107781 85.1274 0.0107781C85.6678 0.0107781 86.0555 0.215561 86.3023 0.625127L97.6281 21.2759H96.4885L107.603 0.614349C107.873 0.204783 108.261 0 108.778 0C109.13 0 109.436 0.118559 109.682 0.33412C109.929 0.560459 110.047 0.851466 110.047 1.19636V22.871C110.047 23.2051 109.929 23.4854 109.682 23.7225C109.436 23.9596 109.13 24.0782 108.778 24.0782C108.402 24.0782 108.073 23.9596 107.814 23.7225C107.556 23.4854 107.427 23.2051 107.427 22.871V4.322L108.002 4.35433L98.0863 22.9465C97.8396 23.3345 97.4636 23.5285 96.9467 23.5285C96.3828 23.5285 95.9833 23.2806 95.7366 22.7848L85.7618 4.47289L86.4315 4.322V22.8818C86.4315 23.2159 86.3023 23.4962 86.0438 23.7333C85.7971 23.9596 85.4916 24.0782 85.1274 24.0782Z" fill="black"/>
<path d="M124.787 24.2278C122.977 24.2278 121.368 23.8614 119.97 23.1285C118.571 22.3956 117.467 21.3824 116.68 20.0891C115.881 18.7957 115.481 17.3191 115.481 15.6485C115.481 13.9671 115.857 12.4797 116.609 11.1972C117.361 9.91457 118.395 8.90143 119.723 8.15775C121.039 7.41406 122.566 7.04761 124.293 7.04761C125.997 7.04761 127.477 7.40328 128.746 8.11463C130.015 8.82599 130.99 9.80679 131.683 11.057C132.376 12.3073 132.729 13.7408 132.729 15.3467C132.729 15.6808 132.611 15.9395 132.388 16.1335C132.165 16.3275 131.871 16.4245 131.519 16.4245H117.244V14.4521H131.789L130.344 15.4114C130.367 14.215 130.132 13.148 129.639 12.2103C129.145 11.2618 128.44 10.5289 127.536 9.99002C126.631 9.45111 125.55 9.19244 124.293 9.19244C123.012 9.19244 121.896 9.47267 120.933 10.0224C119.969 10.572 119.229 11.3481 118.701 12.3181C118.172 13.2989 117.913 14.409 117.913 15.6593C117.913 16.9095 118.207 18.0197 118.806 18.9897C119.394 19.9597 120.216 20.7142 121.238 21.2746C122.272 21.8243 123.459 22.1045 124.798 22.1045C125.609 22.1045 126.42 21.9752 127.23 21.7165C128.053 21.4579 128.699 21.1345 129.192 20.7465C129.439 20.5633 129.721 20.4663 130.038 20.4555C130.355 20.4447 130.626 20.5202 130.849 20.6818C131.143 20.9297 131.295 21.1992 131.307 21.4794C131.319 21.7704 131.19 22.0183 130.919 22.2231C130.179 22.7943 129.239 23.2794 128.1 23.6566C126.937 24.0338 125.844 24.2278 124.787 24.2278Z" fill="black"/>
<path d="M145.408 24.2278C143.598 24.2278 141.989 23.8614 140.591 23.1285C139.192 22.3956 138.088 21.3824 137.301 20.0891C136.502 18.7957 136.103 17.3191 136.103 15.6485C136.103 13.9671 136.479 12.4797 137.23 11.1972C137.982 9.91457 139.016 8.90143 140.344 8.15775C141.66 7.41406 143.187 7.04761 144.914 7.04761C146.618 7.04761 148.098 7.40328 149.367 8.11463C150.636 8.82599 151.611 9.80679 152.304 11.057C152.997 12.3073 153.35 13.7408 153.35 15.3467C153.35 15.6808 153.232 15.9395 153.009 16.1335C152.786 16.3275 152.492 16.4245 152.14 16.4245H137.841V14.4521H152.386L150.941 15.4114C150.965 14.215 150.73 13.148 150.236 12.2103C149.743 11.2618 149.038 10.5289 148.133 9.99002C147.229 9.45111 146.148 9.19244 144.891 9.19244C143.61 9.19244 142.494 9.47267 141.53 10.0224C140.567 10.572 139.827 11.3481 139.298 12.3181C138.77 13.2989 138.511 14.409 138.511 15.6593C138.511 16.9095 138.805 18.0197 139.404 18.9897C139.991 19.9597 140.814 20.7142 141.836 21.2746C142.87 21.8243 144.056 22.1045 145.396 22.1045C146.207 22.1045 147.017 21.9752 147.828 21.7165C148.65 21.4579 149.296 21.1345 149.79 20.7465C150.037 20.5633 150.319 20.4663 150.636 20.4555C150.953 20.4447 151.223 20.5202 151.447 20.6818C151.74 20.9297 151.893 21.1992 151.905 21.4794C151.916 21.7704 151.787 22.0183 151.517 22.2231C150.777 22.7943 149.837 23.2794 148.697 23.6566C147.558 24.0338 146.465 24.2278 145.408 24.2278Z" fill="black"/>
<path d="M167.053 17.1903L167.064 17.2226C167.088 17.3628 167.194 17.4705 167.323 17.5352C167.405 17.5675 167.487 17.5999 167.511 17.5999L169.849 17.8262C170.119 17.8693 170.859 17.9556 171.129 17.9771L174.443 18.1927C174.736 18.2142 175.042 18.2466 175.335 18.3112L176.029 18.4406C176.264 18.4837 176.487 18.5807 176.675 18.7208H176.687C176.816 18.807 176.91 18.9256 176.969 19.0657C176.992 19.1088 177.016 19.1627 177.039 19.2058C177.11 19.3567 177.168 19.5184 177.227 19.6693L177.251 19.7447C177.345 19.9818 177.38 20.2297 177.38 20.4776V20.6501C177.38 20.898 177.345 21.1566 177.274 21.3938L177.168 21.8249C177.11 22.0728 177.016 22.3099 176.898 22.5362L176.828 22.6763C176.722 22.8811 176.593 23.0751 176.428 23.2476L176.24 23.4416C176.04 23.6464 175.805 23.8188 175.535 23.9482L175.382 24.0128C175.147 24.1206 174.889 24.1853 174.619 24.2068L171.294 24.4655L167.276 24.7349L166.982 24.7565C166.841 24.7673 166.7 24.8212 166.594 24.9182C166.524 24.9828 166.489 25.0583 166.477 25.1445L166.148 28.4103L165.631 32.6892L165.443 33.8963C165.419 34.0795 165.349 34.252 165.255 34.4244L165.184 34.5538C165.149 34.6184 165.102 34.6723 165.055 34.7262C164.832 34.931 164.55 35.0711 164.233 35.1142C164.151 35.125 164.068 35.1358 163.974 35.1465C163.692 35.1897 163.399 35.2004 163.105 35.1789L162.6 35.1465C162.33 35.125 162.048 35.0711 161.789 34.9849H161.777C161.237 34.8017 160.743 34.5322 160.297 34.1981C160.191 34.1119 160.086 34.0364 159.992 33.9717C159.792 33.8209 159.639 33.6268 159.545 33.4113V33.4005C159.463 33.2065 159.404 33.0017 159.392 32.7969C159.275 31.3958 158.77 25.7265 158.77 25.7265V25.5756C158.77 25.511 158.734 25.4463 158.676 25.4032C158.629 25.3709 158.57 25.3493 158.511 25.3601L157.689 25.4355L152.719 25.8235L152.049 25.9098L151.262 26.0068C151.051 26.0283 150.827 26.0068 150.628 25.9421H150.616C150.357 25.8451 150.134 25.6942 149.97 25.5002C149.888 25.4032 149.794 25.2954 149.723 25.2092C149.594 25.0583 149.476 24.8858 149.382 24.7026L149.03 23.9482C148.995 23.8835 149.03 23.808 149.1 23.7757C149.57 23.5494 151.38 22.6332 152.073 21.9327C152.308 21.6955 152.414 21.2644 152.132 21.0704L151.521 20.3698C151.239 20.0573 150.71 20.1327 150.322 20.3052C149.488 20.6824 148.501 21.5878 148.454 21.286C148.431 21.1674 148.466 20.4776 148.478 20.3806C148.489 20.2082 148.513 20.0465 148.548 19.874L148.642 19.4321C148.748 18.9579 148.971 18.5268 149.312 18.1603L149.335 18.1388C149.523 17.934 149.758 17.7723 150.017 17.6645L150.04 17.6538C150.616 17.4167 151.239 17.2873 151.873 17.2873H153.424L157.783 17.1795C157.947 17.1795 158.076 17.0394 158.065 16.8885L157.841 14.4742L157.642 12.254L157.618 11.9737L157.571 11.4133L157.595 11.7043C157.571 10.9067 157.701 10.6049 157.982 10.3247L158.194 10.1199C158.664 9.67801 159.228 9.32233 159.839 9.07444L159.862 9.06366C160.203 8.92355 160.555 8.82654 160.92 8.76188C161.037 8.74032 161.166 8.71876 161.296 8.69721C161.824 8.61098 162.365 8.56787 162.905 8.56787H163.211C163.645 8.56787 164.092 8.61098 164.515 8.69721H164.538C165.02 8.79421 165.455 8.99899 165.842 9.26844L165.925 9.33311C166.218 9.54867 166.442 9.83968 166.594 10.163L166.665 10.3139C166.782 10.5834 166.865 10.8636 166.923 11.1546L166.947 11.2624C167.006 11.5534 167.029 11.8552 167.029 12.157V14.1401L167.064 16.7484V16.9963" fill="url(#paint0_linear_9678_5251)"/>
<defs>
<linearGradient id="paint0_linear_9678_5251" x1="154.084" y1="29.2588" x2="169.659" y2="12.2808" gradientUnits="userSpaceOnUse">
<stop stop-color="#E20000"/>
<stop offset="1" stop-color="#8C0000"/>
</linearGradient>
</defs>
</svg>
