<svg width="48" height="47" viewBox="0 0 48 47" fill="none" xmlns="http://www.w3.org/2000/svg">
<path opacity="0.97" fill-rule="evenodd" clip-rule="evenodd" d="M47.8408 21.1173C47.8408 22.7058 47.8408 24.2942 47.8408 25.8827C47.3243 33.2411 45.1285 40.0621 41.2534 46.3459C41.0947 46.5973 40.9078 46.8153 40.6927 47C39.6269 46.3502 38.5835 45.6649 37.5625 44.9443C44.5111 33.9115 45.8349 22.2316 41.5337 9.90457C40.4799 7.14283 39.1562 4.52653 37.5625 2.05567C38.5835 1.33502 39.6269 0.649805 40.6927 0C40.9078 0.184711 41.0947 0.402737 41.2534 0.654076C45.1285 6.93784 47.3243 13.7589 47.8408 21.1173Z" fill="black"/>
<path opacity="0.969" fill-rule="evenodd" clip-rule="evenodd" d="M31.769 5.23242C36.545 12.3471 38.3048 20.1648 37.0484 28.6857C36.2323 33.4304 34.488 37.7909 31.8158 41.7672C30.7445 41.0843 29.7011 40.3679 28.6855 39.6181C34.4363 30.5743 35.1682 21.1369 30.8814 11.306C30.2205 9.95251 29.4886 8.64439 28.6855 7.38153C29.6997 6.64123 30.7276 5.92485 31.769 5.23242Z" fill="black"/>
<path opacity="0.969" fill-rule="evenodd" clip-rule="evenodd" d="M0 25.6951C0 24.5427 0 23.3902 0 22.2378C0.308284 19.5674 1.0558 17.0135 2.24254 14.5758C2.32337 14.4746 2.41681 14.4591 2.52286 14.5291C9.11621 19.6555 15.7348 24.7479 22.3787 29.8064C24.273 23.756 23.4477 18.1029 19.9026 12.8472C20.8897 12.0632 21.9175 11.3313 22.9861 10.6514C27.1181 16.6931 28.2238 23.2649 26.3032 30.3671C25.7097 32.3006 24.9154 34.1382 23.9205 35.88C17.3196 30.821 10.7322 25.7442 4.15805 20.6494C3.33696 24.1429 3.86646 27.4133 5.74652 30.4605C5.80882 30.554 5.80882 30.6474 5.74652 30.7408C4.71773 31.3963 3.68989 32.0504 2.66302 32.7031C1.92474 31.6003 1.33296 30.4167 0.887674 29.1524C0.515741 28.0069 0.21985 26.8545 0 25.6951Z" fill="black"/>
</svg>
