<svg width="48" height="47" viewBox="0 0 48 47" fill="none" xmlns="http://www.w3.org/2000/svg">
<path fill-rule="evenodd" clip-rule="evenodd" d="M0 0C4.98646 0 9.97295 0 14.9594 0C14.9594 4.89583 14.9594 9.7917 14.9594 14.6875C9.97295 14.6875 4.98646 14.6875 0 14.6875C0 9.7917 0 4.89583 0 0ZM2.99187 2.9375C5.98375 2.9375 8.97563 2.9375 11.9675 2.9375C11.9675 5.875 11.9675 8.8125 11.9675 11.75C8.97563 11.75 5.98375 11.75 2.99187 11.75C2.99187 8.8125 2.99187 5.875 2.99187 2.9375Z" fill="black"/>
<path fill-rule="evenodd" clip-rule="evenodd" d="M23.9346 0C25.9291 0 27.9238 0 29.9183 0C29.9183 0.97917 29.9183 1.95833 29.9183 2.9375C27.9238 2.9375 25.9291 2.9375 23.9346 2.9375C23.9346 1.95833 23.9346 0.97917 23.9346 0Z" fill="black"/>
<path fill-rule="evenodd" clip-rule="evenodd" d="M32.9102 0C37.8966 0 42.8831 0 47.8695 0C47.8695 4.89583 47.8695 9.7917 47.8695 14.6875C42.8831 14.6875 37.8966 14.6875 32.9102 14.6875C32.9102 9.7917 32.9102 4.89583 32.9102 0ZM35.902 2.9375C38.8939 2.9375 41.8858 2.9375 44.8777 2.9375C44.8777 5.875 44.8777 8.8125 44.8777 11.75C41.8858 11.75 38.8939 11.75 35.902 11.75C35.902 8.8125 35.902 5.875 35.902 2.9375Z" fill="black"/>
<path fill-rule="evenodd" clip-rule="evenodd" d="M17.9512 2.9375C18.9485 2.9375 19.9457 2.9375 20.943 2.9375C20.943 3.91667 20.943 4.89583 20.943 5.875C23.9349 5.875 26.9268 5.875 29.9187 5.875C29.9187 6.85417 29.9187 7.83333 29.9187 8.8125C28.9213 8.8125 27.9241 8.8125 26.9268 8.8125C26.9268 9.7917 26.9268 10.7708 26.9268 11.75C25.9295 11.75 24.9322 11.75 23.9349 11.75C23.9349 10.7708 23.9349 9.7917 23.9349 8.8125C21.9404 8.8125 19.9457 8.8125 17.9512 8.8125C17.9512 6.85417 17.9512 4.89583 17.9512 2.9375Z" fill="black"/>
<path fill-rule="evenodd" clip-rule="evenodd" d="M5.9834 5.875C6.98069 5.875 7.97798 5.875 8.97527 5.875C8.97527 6.85417 8.97527 7.83333 8.97527 8.8125C7.97798 8.8125 6.98069 8.8125 5.9834 8.8125C5.9834 7.83333 5.9834 6.85417 5.9834 5.875Z" fill="black"/>
<path fill-rule="evenodd" clip-rule="evenodd" d="M38.8945 5.875C39.8919 5.875 40.8891 5.875 41.8864 5.875C41.8864 6.85417 41.8864 7.83333 41.8864 8.8125C40.8891 8.8125 39.8919 8.8125 38.8945 8.8125C38.8945 7.83333 38.8945 6.85417 38.8945 5.875Z" fill="black"/>
<path fill-rule="evenodd" clip-rule="evenodd" d="M17.9512 11.75C18.9485 11.75 19.9457 11.75 20.943 11.75C20.943 12.7292 20.943 13.7083 20.943 14.6875C19.9457 14.6875 18.9485 14.6875 17.9512 14.6875C17.9512 13.7083 17.9512 12.7292 17.9512 11.75Z" fill="black"/>
<path fill-rule="evenodd" clip-rule="evenodd" d="M26.9268 14.6875C27.9241 14.6875 28.9213 14.6875 29.9187 14.6875C29.9187 16.6458 29.9187 18.6042 29.9187 20.5625C25.9295 20.5625 21.9404 20.5625 17.9512 20.5625C17.9512 19.5833 17.9512 18.6042 17.9512 17.625C20.943 17.625 23.9349 17.625 26.9268 17.625C26.9268 16.6458 26.9268 15.6667 26.9268 14.6875Z" fill="black"/>
<path fill-rule="evenodd" clip-rule="evenodd" d="M0 17.625C0.997295 17.625 1.99458 17.625 2.99187 17.625C2.99187 19.5833 2.99187 21.5417 2.99187 23.5C3.98917 23.5 4.98645 23.5 5.98375 23.5C5.98375 24.4792 5.98375 25.4583 5.98375 26.4375C4.98645 26.4375 3.98917 26.4375 2.99187 26.4375C2.99187 27.4167 2.99187 28.3958 2.99187 29.375C1.99458 29.375 0.997295 29.375 0 29.375C0 25.4583 0 21.5417 0 17.625Z" fill="black"/>
<path fill-rule="evenodd" clip-rule="evenodd" d="M5.9834 17.625C6.98069 17.625 7.97798 17.625 8.97527 17.625C8.97527 18.6042 8.97527 19.5833 8.97527 20.5625C7.97798 20.5625 6.98069 20.5625 5.9834 20.5625C5.9834 19.5833 5.9834 18.6042 5.9834 17.625Z" fill="black"/>
<path fill-rule="evenodd" clip-rule="evenodd" d="M11.9675 17.625C12.9648 17.625 13.962 17.625 14.9593 17.625C14.9593 19.5833 14.9593 21.5417 14.9593 23.5C16.9539 23.5 18.9485 23.5 20.9431 23.5C20.9431 24.4792 20.9431 25.4583 20.9431 26.4375C21.9404 26.4375 22.9376 26.4375 23.935 26.4375C23.935 27.4167 23.935 28.3958 23.935 29.375C21.9404 29.375 19.9458 29.375 17.9512 29.375C17.9512 28.3958 17.9512 27.4167 17.9512 26.4375C15.9567 26.4375 13.962 26.4375 11.9675 26.4375C11.9675 27.4167 11.9675 28.3958 11.9675 29.375C10.9701 29.375 9.97291 29.375 8.97559 29.375C8.97559 27.4167 8.97559 25.4583 8.97559 23.5C9.97291 23.5 10.9701 23.5 11.9675 23.5C11.9675 21.5417 11.9675 19.5833 11.9675 17.625Z" fill="black"/>
<path fill-rule="evenodd" clip-rule="evenodd" d="M47.8695 17.625C47.8695 18.6042 47.8695 19.5833 47.8695 20.5625C46.8722 20.5625 45.875 20.5625 44.8777 20.5625C44.8777 21.5417 44.8777 22.5208 44.8777 23.5C40.8885 23.5 36.8994 23.5 32.9102 23.5C32.9102 22.5208 32.9102 21.5417 32.9102 20.5625C33.9075 20.5625 34.9047 20.5625 35.902 20.5625C35.902 19.5833 35.902 18.6042 35.902 17.625C36.8994 17.625 37.8966 17.625 38.8939 17.625C38.8939 18.6042 38.8939 19.5833 38.8939 20.5625C39.8912 20.5625 40.8885 20.5625 41.8858 20.5625C41.8858 19.5833 41.8858 18.6042 41.8858 17.625C43.8803 17.625 45.875 17.625 47.8695 17.625Z" fill="black"/>
<path fill-rule="evenodd" clip-rule="evenodd" d="M26.9268 23.5C27.9241 23.5 28.9213 23.5 29.9186 23.5C29.9186 25.4583 29.9186 27.4167 29.9186 29.375C28.9213 29.375 27.9241 29.375 26.9268 29.375C26.9268 27.4167 26.9268 25.4583 26.9268 23.5Z" fill="black"/>
<path fill-rule="evenodd" clip-rule="evenodd" d="M32.9102 26.4375C34.9047 26.4375 36.8994 26.4375 38.8939 26.4375C38.8939 29.375 38.8939 32.3125 38.8939 35.25C37.8966 35.25 36.8994 35.25 35.902 35.25C35.902 33.2917 35.902 31.3333 35.902 29.375C34.9047 29.375 33.9075 29.375 32.9102 29.375C32.9102 28.3958 32.9102 27.4167 32.9102 26.4375Z" fill="black"/>
<path fill-rule="evenodd" clip-rule="evenodd" d="M47.8705 26.4375C47.8705 27.4167 47.8705 28.3958 47.8705 29.375C45.8759 29.375 43.8813 29.375 41.8867 29.375C41.8867 28.3958 41.8867 27.4167 41.8867 26.4375C43.8813 26.4375 45.8759 26.4375 47.8705 26.4375Z" fill="black"/>
<path fill-rule="evenodd" clip-rule="evenodd" d="M0 32.3125C4.98646 32.3125 9.97295 32.3125 14.9594 32.3125C14.9594 37.2083 14.9594 42.1042 14.9594 47C9.97295 47 4.98646 47 0 47C0 42.1042 0 37.2083 0 32.3125ZM2.99187 35.25C5.98375 35.25 8.97563 35.25 11.9675 35.25C11.9675 38.1875 11.9675 41.125 11.9675 44.0625C8.97563 44.0625 5.98375 44.0625 2.99187 44.0625C2.99187 41.125 2.99187 38.1875 2.99187 35.25Z" fill="black"/>
<path fill-rule="evenodd" clip-rule="evenodd" d="M26.9268 47C23.9349 47 20.943 47 17.9512 47C17.9512 46.0208 17.9512 45.0417 17.9512 44.0625C19.9457 44.0625 21.9404 44.0625 23.9349 44.0625C23.9349 41.125 23.9349 38.1875 23.9349 35.25C21.9404 35.25 19.9457 35.25 17.9512 35.25C17.9512 34.2708 17.9512 33.2917 17.9512 32.3125C20.943 32.3125 23.9349 32.3125 26.9268 32.3125C26.9268 35.25 26.9268 38.1875 26.9268 41.125C28.9213 41.125 30.916 41.125 32.9105 41.125C32.9105 42.1042 32.9105 43.0833 32.9105 44.0625C30.916 44.0625 28.9213 44.0625 26.9268 44.0625C26.9268 45.0417 26.9268 46.0208 26.9268 47Z" fill="black"/>
<path fill-rule="evenodd" clip-rule="evenodd" d="M29.9189 32.3125C30.9163 32.3125 31.9135 32.3125 32.9108 32.3125C32.9108 34.2708 32.9108 36.2292 32.9108 38.1875C31.9135 38.1875 30.9163 38.1875 29.9189 38.1875C29.9189 36.2292 29.9189 34.2708 29.9189 32.3125Z" fill="black"/>
<path fill-rule="evenodd" clip-rule="evenodd" d="M47.8698 32.3125C47.8698 33.2917 47.8698 34.2708 47.8698 35.25C46.8725 35.25 45.8753 35.25 44.8779 35.25C44.8779 34.2708 44.8779 33.2917 44.8779 32.3125C45.8753 32.3125 46.8725 32.3125 47.8698 32.3125Z" fill="black"/>
<path fill-rule="evenodd" clip-rule="evenodd" d="M5.9834 38.1875C6.98069 38.1875 7.97798 38.1875 8.97527 38.1875C8.97527 39.1667 8.97527 40.1458 8.97527 41.125C7.97798 41.125 6.98069 41.125 5.9834 41.125C5.9834 40.1458 5.9834 39.1667 5.9834 38.1875Z" fill="black"/>
<path fill-rule="evenodd" clip-rule="evenodd" d="M17.9512 38.1875C18.9485 38.1875 19.9457 38.1875 20.943 38.1875C20.943 39.1667 20.943 40.1458 20.943 41.125C19.9457 41.125 18.9485 41.125 17.9512 41.125C17.9512 40.1458 17.9512 39.1667 17.9512 38.1875Z" fill="black"/>
<path fill-rule="evenodd" clip-rule="evenodd" d="M38.8942 47C37.8969 47 36.8997 47 35.9023 47C35.9023 44.0625 35.9023 41.125 35.9023 38.1875C38.8942 38.1875 41.8861 38.1875 44.878 38.1875C44.878 39.1667 44.878 40.1458 44.878 41.125C42.8834 41.125 40.8888 41.125 38.8942 41.125C38.8942 43.0833 38.8942 45.0417 38.8942 47Z" fill="black"/>
<path fill-rule="evenodd" clip-rule="evenodd" d="M47.8705 44.0625C47.8705 45.0417 47.8705 46.0208 47.8705 47C45.8759 47 43.8813 47 41.8867 47C41.8867 46.0208 41.8867 45.0417 41.8867 44.0625C43.8813 44.0625 45.8759 44.0625 47.8705 44.0625Z" fill="black"/>
</svg>
