<svg width="27" height="27" viewBox="0 0 27 27" fill="none" xmlns="http://www.w3.org/2000/svg">
<path d="M25.0714 15.4286H15.4286V25.0714C15.4286 26.1321 14.5607 27 13.5 27C12.4393 27 11.5714 26.1321 11.5714 25.0714V15.4286H1.92857C0.867857 15.4286 0 14.5607 0 13.5C0 12.4393 0.867857 11.5714 1.92857 11.5714H11.5714V1.92857C11.5714 0.867857 12.4393 0 13.5 0C14.5607 0 15.4286 0.867857 15.4286 1.92857V11.5714H25.0714C26.1321 11.5714 27 12.4393 27 13.5C27 14.5607 26.1321 15.4286 25.0714 15.4286Z" fill="url(#paint0_linear_9467_29128)"/>
<defs>
<linearGradient id="paint0_linear_9467_29128" x1="13.5" y1="0" x2="13.5" y2="27" gradientUnits="userSpaceOnUse">
<stop stop-color="#CA0000"/>
<stop offset="1" stop-color="#640000"/>
</linearGradient>
</defs>
</svg>
