<svg width="24" height="24" viewBox="0 0 24 24" fill="none" xmlns="http://www.w3.org/2000/svg">
<path d="M20.6487 17.9474C20.3267 18.6913 19.9455 19.3761 19.5039 20.0057C18.9019 20.864 18.409 21.458 18.0292 21.7879C17.4403 22.3295 16.8094 22.6068 16.1339 22.6226C15.6489 22.6226 15.064 22.4846 14.3831 22.2046C13.7001 21.9259 13.0723 21.7879 12.4983 21.7879C11.8964 21.7879 11.2508 21.9259 10.5602 22.2046C9.86858 22.4846 9.31143 22.6304 8.88544 22.6449C8.2376 22.6725 7.59185 22.3873 6.94729 21.7879C6.5359 21.4291 6.02133 20.814 5.4049 19.9426C4.74351 19.012 4.19976 17.9329 3.77378 16.7027C3.31757 15.3739 3.08887 14.0871 3.08887 12.8414C3.08887 11.4144 3.39722 10.1836 4.01483 9.15225C4.50022 8.32381 5.14597 7.67031 5.95416 7.19057C6.76236 6.71083 7.63562 6.46636 8.57604 6.45072C9.09062 6.45072 9.76541 6.60989 10.604 6.92271C11.4402 7.23658 11.9771 7.39574 12.2125 7.39574C12.3885 7.39574 12.9849 7.20963 13.9961 6.83859C14.9523 6.49449 15.7593 6.35201 16.4204 6.40814C18.2119 6.55272 19.5578 7.25892 20.4528 8.53122C18.8506 9.502 18.0581 10.8617 18.0739 12.606C18.0883 13.9646 18.5812 15.0952 19.5499 15.9929C19.9889 16.4096 20.4791 16.7316 21.0246 16.9603C20.9063 17.3034 20.7814 17.6319 20.6487 17.9474V17.9474ZM16.54 1.7795C16.54 2.84441 16.1509 3.8387 15.3755 4.75901C14.4397 5.85308 13.3077 6.48529 12.0803 6.38553C12.0646 6.25778 12.0555 6.12332 12.0555 5.98202C12.0555 4.95972 12.5006 3.86565 13.2909 2.9711C13.6855 2.51817 14.1873 2.14157 14.7958 1.84114C15.4031 1.5452 15.9775 1.38154 16.5177 1.35352C16.5334 1.49588 16.54 1.63825 16.54 1.77949V1.7795Z" fill="black"/>
</svg>
