<svg width="46" height="46" viewBox="0 0 46 46" fill="none" xmlns="http://www.w3.org/2000/svg">
<circle cx="22.61" cy="23.1334" r="22.61" fill="#F7F7F7"/>
<path d="M20.7835 11.6031C17.6796 12.1499 15.4979 14.9857 15.8088 18.068C16.2323 22.2118 20.5583 24.7099 24.284 22.957C26.0101 22.1475 27.1627 20.743 27.629 18.8775C27.7309 18.4808 27.747 18.261 27.747 17.4944C27.7416 16.6743 27.7255 16.5295 27.5969 16.0471C27.3074 14.9803 26.6427 13.8438 25.9029 13.163C24.5145 11.8711 22.5793 11.2868 20.7835 11.6031ZM22.5364 13.3078C24.2304 13.6401 25.4473 14.7659 25.9351 16.4491C26.0745 16.9423 26.0745 18.1002 25.9351 18.5934C25.2007 21.1343 22.59 22.4531 20.1884 21.4881C18.0549 20.6358 16.9667 18.2181 17.7547 16.0685C18.4677 14.1119 20.5369 12.9164 22.5364 13.3078Z" fill="url(#paint0_linear_9467_28380)"/>
<path d="M21.1056 24.5757C21.0199 24.5864 20.6929 24.6239 20.3819 24.6561C19.7547 24.7258 18.8166 24.9402 18.1305 25.1761C15.2303 26.1624 12.7644 28.4139 11.5315 31.1907C11.0329 32.3165 10.915 32.8954 11.0544 33.5012C11.2795 34.4768 12.1319 35.3024 13.0968 35.4793C13.2898 35.5168 15.5681 35.5275 19.6422 35.5221C25.8659 35.5061 25.8981 35.5061 26.0428 35.3935C26.3269 35.1844 26.4127 35.0129 26.4127 34.6752C26.4127 34.3374 26.3269 34.1659 26.0428 33.9568C25.8981 33.8443 25.8552 33.8443 19.5832 33.8175L13.2683 33.7906L13.07 33.6352C12.8556 33.4744 12.7162 33.2171 12.7162 32.9919C12.7162 32.8096 12.9521 32.161 13.2094 31.6464C14.2065 29.6469 15.7396 28.1351 17.7123 27.2024C19.9745 26.1303 22.5208 25.9855 24.9171 26.795C25.4585 26.9826 25.748 26.9987 26.0106 26.8539C26.2251 26.7414 26.4395 26.3768 26.4395 26.1356C26.4395 25.8944 26.2411 25.5245 26.0482 25.4119C25.6676 25.1814 24.3542 24.8169 23.4322 24.6829C22.8639 24.5971 21.4166 24.5328 21.1056 24.5757Z" fill="url(#paint1_linear_9467_28380)"/>
<path d="M27.9663 28.0497C27.6071 28.2051 27.4034 28.6125 27.4838 29.0307C27.516 29.2022 27.6768 29.3898 28.5184 30.2422L29.5209 31.2446L28.5452 32.2256C28.0145 32.7617 27.5482 33.2549 27.516 33.3192C27.4838 33.3835 27.457 33.5497 27.457 33.6944C27.457 34 27.5964 34.2573 27.843 34.4074C28.0413 34.5253 28.4648 34.5521 28.6525 34.4557C28.7168 34.4235 29.21 33.9571 29.746 33.4264L30.727 32.4508L31.7295 33.4532C32.8123 34.5307 32.8874 34.5736 33.3377 34.4878C33.6004 34.4396 33.922 34.1179 33.9702 33.8553C34.056 33.405 34.0131 33.3299 32.9356 32.2471L31.9385 31.2446L32.9356 30.2368C34.0131 29.1593 34.056 29.0843 33.9702 28.634C33.922 28.3713 33.6004 28.0497 33.3377 28.0014C32.8874 27.9156 32.8123 27.9585 31.7295 29.036L30.727 30.0385L29.746 29.0628C29.21 28.5268 28.7007 28.0604 28.6203 28.0282C28.4166 27.9532 28.1646 27.9639 27.9663 28.0497Z" fill="url(#paint2_linear_9467_28380)"/>
<defs>
<linearGradient id="paint0_linear_9467_28380" x1="15.7793" y1="17.5216" x2="27.747" y2="17.5216" gradientUnits="userSpaceOnUse">
<stop stop-color="#970000"/>
<stop offset="1" stop-color="#F44646"/>
</linearGradient>
<linearGradient id="paint1_linear_9467_28380" x1="11" y1="30.0427" x2="26.4395" y2="30.0427" gradientUnits="userSpaceOnUse">
<stop stop-color="#970000"/>
<stop offset="1" stop-color="#F44646"/>
</linearGradient>
<linearGradient id="paint2_linear_9467_28380" x1="27.457" y1="31.2446" x2="33.999" y2="31.2446" gradientUnits="userSpaceOnUse">
<stop stop-color="#970000"/>
<stop offset="1" stop-color="#F44646"/>
</linearGradient>
</defs>
</svg>
