<svg width="23" height="23" viewBox="0 0 23 23" fill="none" xmlns="http://www.w3.org/2000/svg">
<g clip-path="url(#clip0_91_869)">
<rect width="22.219" height="22.219" transform="translate(0.0874023)" fill="white"/>
<path d="M21.8435 11.1741C21.8435 5.29416 17.0769 0.527512 11.1969 0.527512C5.31694 0.527512 0.550293 5.29416 0.550293 11.1741C0.550293 16.4882 4.44361 20.8927 9.53337 21.6914V14.2517H6.83013V11.1741H9.53337V8.82855C9.53337 6.16024 11.1228 4.68635 13.5548 4.68635C14.7196 4.68635 15.938 4.89429 15.938 4.89429V7.51435H14.5955C13.2729 7.51435 12.8604 8.33504 12.8604 9.17699V11.1741H15.8132L15.3412 14.2517H12.8604V21.6914C17.9502 20.8927 21.8435 16.4882 21.8435 11.1741Z" fill="#1877F2"/>
</g>
<defs>
<clipPath id="clip0_91_869">
<rect width="22.219" height="22.219" fill="white" transform="translate(0.0874023)"/>
</clipPath>
</defs>
</svg>
