<svg width="46" height="47" viewBox="0 0 46 47" fill="none" xmlns="http://www.w3.org/2000/svg">
<circle cx="22.61" cy="23.4933" r="22.61" fill="#F7F7F7"/>
<path d="M23 28.8833C23.2833 28.8833 23.521 28.7873 23.713 28.5953C23.905 28.4033 24.0007 28.166 24 27.8833C23.9993 27.6006 23.9033 27.3633 23.712 27.1713C23.5207 26.9793 23.2833 26.8833 23 26.8833C22.7167 26.8833 22.4793 26.9793 22.288 27.1713C22.0967 27.3633 22.0007 27.6006 22 27.8833C21.9993 28.166 22.0953 28.4036 22.288 28.5963C22.4807 28.789 22.718 28.8846 23 28.8833ZM22 24.8833H24V18.8833H22V24.8833ZM13 35.8833V17.8833C13 17.3333 13.196 16.8626 13.588 16.4713C13.98 16.08 14.4507 15.884 15 15.8833H31C31.55 15.8833 32.021 16.0793 32.413 16.4713C32.805 16.8633 33.0007 17.334 33 17.8833V29.8833C33 30.4333 32.8043 30.9043 32.413 31.2963C32.0217 31.6883 31.5507 31.884 31 31.8833H17L13 35.8833ZM16.15 29.8833H31V17.8833H15V31.0083L16.15 29.8833Z" fill="url(#paint0_linear_9467_28323)"/>
<defs>
<linearGradient id="paint0_linear_9467_28323" x1="13" y1="25.8833" x2="33" y2="25.8833" gradientUnits="userSpaceOnUse">
<stop stop-color="#970000"/>
<stop offset="1" stop-color="#F44646"/>
</linearGradient>
</defs>
</svg>
