<svg width="24" height="21" viewBox="0 0 24 21" fill="none" xmlns="http://www.w3.org/2000/svg">
<path d="M21.262 8.34573C21.262 8.13151 21.1668 7.92606 20.9972 7.77458C20.8277 7.62311 20.5977 7.53801 20.358 7.53801C20.1182 7.53801 19.8882 7.62311 19.7187 7.77458C19.5491 7.92606 19.4539 8.13151 19.4539 8.34573H21.262ZM4.38607 8.34573C4.38607 8.13151 4.29082 7.92606 4.12128 7.77458C3.95173 7.62311 3.72178 7.53801 3.482 7.53801C3.24223 7.53801 3.01227 7.62311 2.84273 7.77458C2.67318 7.92606 2.57793 8.13151 2.57793 8.34573H4.38607ZM22.1299 11.0704C22.2127 11.1498 22.3125 11.2134 22.4234 11.2576C22.5343 11.3017 22.654 11.3255 22.7754 11.3274C22.8968 11.3293 23.0174 11.3094 23.13 11.2687C23.2425 11.2281 23.3448 11.1676 23.4306 11.0909C23.5165 11.0142 23.5842 10.9229 23.6296 10.8223C23.6751 10.7217 23.6974 10.614 23.6953 10.5055C23.6931 10.3971 23.6666 10.2901 23.6172 10.1911C23.5678 10.092 23.4965 10.0028 23.4077 9.92886L22.1299 11.0704ZM11.92 0.807009L12.5589 0.23622C12.3893 0.0849609 12.1596 0 11.92 0C11.6804 0 11.4506 0.0849609 11.2811 0.23622L11.92 0.807009ZM0.432276 9.92886C0.343452 10.0028 0.272209 10.092 0.222796 10.1911C0.173384 10.2901 0.146814 10.3971 0.144672 10.5055C0.14253 10.614 0.16486 10.7217 0.21033 10.8223C0.2558 10.9229 0.323478 11.0142 0.409327 11.0909C0.495176 11.1676 0.597437 11.2281 0.710009 11.2687C0.822582 11.3094 0.943159 11.3293 1.06455 11.3274C1.18594 11.3255 1.30565 11.3017 1.41655 11.2576C1.52745 11.2134 1.62726 11.1498 1.71003 11.0704L0.432276 9.92886ZM5.89285 21H17.9471V19.3846H5.89285V21ZM21.262 18.0384V8.34573H19.4539V18.0384H21.262ZM4.38607 18.0384V8.34573H2.57793V18.0384H4.38607ZM23.4077 9.92886L12.5589 0.23622L11.2811 1.3778L22.1299 11.0704L23.4077 9.92886ZM11.2811 0.23622L0.432276 9.92886L1.71003 11.0704L12.5589 1.3778L11.2811 0.23622ZM17.9471 21C18.8263 21 19.6694 20.688 20.2911 20.1326C20.9128 19.5771 21.262 18.8238 21.262 18.0384H19.4539C19.4539 18.7815 18.7789 19.3846 17.9471 19.3846V21ZM5.89285 19.3846C5.06111 19.3846 4.38607 18.7815 4.38607 18.0384H2.57793C2.57793 18.8238 2.92718 19.5771 3.54885 20.1326C4.17052 20.688 5.01368 21 5.89285 21V19.3846Z" fill="url(#paint0_linear_9467_19940)"/>
<defs>
<linearGradient id="paint0_linear_9467_19940" x1="11.92" y1="0" x2="11.92" y2="21" gradientUnits="userSpaceOnUse">
<stop stop-color="#CA0000"/>
<stop offset="1" stop-color="#640000"/>
</linearGradient>
</defs>
</svg>
