<svg width="14" height="15" viewBox="0 0 14 15" fill="none" xmlns="http://www.w3.org/2000/svg">
<path opacity="0.988" fill-rule="evenodd" clip-rule="evenodd" d="M6.28711 0.0187969C8.88682 -0.147512 10.9964 0.789766 12.6158 2.83063C13.9529 4.74106 14.3213 6.83191 13.7211 9.10319C12.9545 11.5125 11.3797 13.1047 8.99685 13.8797C6.0991 14.6091 3.6449 13.8701 1.6342 11.6627C0.0943103 9.69966 -0.357314 7.50066 0.279332 5.06568C1.0459 2.65641 2.62065 1.06422 5.00355 0.289166C5.43076 0.171314 5.85861 0.0811909 6.28711 0.0187969ZM6.608 2.03755C7.38056 2.05558 7.78463 2.4581 7.82025 3.2452C7.76263 3.89805 7.41796 4.27657 6.78627 4.38075C6.265 4.30432 5.96194 4.00389 5.87708 3.47952C5.78242 3.00288 5.8953 2.58831 6.2158 2.23582C6.3412 2.15197 6.47191 2.08586 6.608 2.03755ZM7.60632 4.84939C7.88108 4.81929 8.14253 4.86132 8.39072 4.97556C8.589 5.16893 8.65439 5.40325 8.58682 5.67852C8.15344 7.15491 7.72559 8.63293 7.30326 10.1126C7.26376 10.2418 7.24593 10.374 7.24978 10.5091C7.31036 10.5149 7.36979 10.5089 7.42805 10.4911C7.72794 10.3079 8.04288 10.1577 8.37289 10.0405C8.68123 10.1002 8.80007 10.2804 8.72944 10.5812C7.94326 11.2522 7.05782 11.7509 6.07318 12.0772C5.67203 12.2087 5.32144 12.1306 5.02138 11.8429C4.90439 11.6162 4.86874 11.3758 4.91441 11.1219C5.33674 9.71437 5.76459 8.30845 6.19797 6.90419C6.26144 6.74186 6.29114 6.57362 6.28711 6.3995C6.01546 6.47059 5.754 6.57272 5.50271 6.70592C5.26147 6.74532 5.0832 6.66122 4.96789 6.45358C4.98754 6.34222 5.02911 6.24009 5.09268 6.14716C5.80802 5.47012 6.6459 5.03753 7.60632 4.84939Z" fill="black"/>
</svg>
