<svg width="46" height="46" viewBox="0 0 46 46" fill="none" xmlns="http://www.w3.org/2000/svg">
<circle cx="22.61" cy="22.7897" r="22.61" fill="#F7F7F7"/>
<path d="M12.6942 11.2276C11.8881 11.387 11.2039 12.0809 11.0492 12.906C10.9836 13.2529 10.9836 28.8365 11.0492 29.1835C11.2086 30.0273 11.8881 30.7071 12.7317 30.8665C12.8864 30.8947 14.147 30.9134 16.0123 30.9134H19.0445L19.1523 31.837C19.3351 33.4169 19.3726 33.6232 19.5554 33.9889C19.7335 34.3546 20.1365 34.7765 20.4692 34.9453C20.9332 35.1844 20.8207 35.1797 27.1289 35.1797C30.9391 35.1797 33.1043 35.1609 33.2683 35.1328C34.1119 34.9734 34.7914 34.2936 34.9508 33.4497C35.0164 33.1028 35.0164 17.5192 34.9508 17.1723C34.8102 16.4409 34.3275 15.8689 33.5964 15.5736L33.3339 15.4657L28.0381 15.4423L22.7422 15.4189L22.5923 14.1999C22.5079 13.5295 22.4189 12.8872 22.3907 12.7747C22.2642 12.2731 21.819 11.687 21.3691 11.4433C20.8817 11.176 20.8817 11.176 16.72 11.1807C14.6204 11.1854 12.8067 11.2042 12.6942 11.2276ZM20.7411 12.7138C20.8254 12.7747 20.9238 12.8872 20.966 12.9669C21.0176 13.0654 21.3456 15.5783 22.0439 21.1807C22.5923 25.6157 23.0562 29.3054 23.0656 29.3757L23.0937 29.5069H18.0275C13.0504 29.5069 12.966 29.5069 12.7832 29.4132C12.6614 29.3522 12.563 29.2538 12.5021 29.1319C12.4083 28.949 12.4083 28.874 12.4083 21.0447C12.4083 13.2201 12.4083 13.1404 12.5021 12.9576C12.5583 12.845 12.6661 12.7372 12.7739 12.6809C12.9426 12.5872 13.0363 12.5872 16.7668 12.5966L20.5864 12.6059L20.7411 12.7138ZM33.2168 16.9425C33.3386 17.0035 33.437 17.1019 33.4979 17.2238C33.5917 17.4067 33.5917 17.4817 33.5917 25.311C33.5917 33.1403 33.5917 33.2153 33.4979 33.3982C33.437 33.5201 33.3386 33.6185 33.2168 33.6795C33.034 33.7732 32.9684 33.7732 27.3913 33.7638L21.7487 33.7498L23.1265 32.1558C24.0545 31.0822 24.5138 30.5102 24.5466 30.4024C24.5794 30.2758 24.4107 28.785 23.7733 23.6514C23.3234 20.0274 22.9484 17.0129 22.9391 16.9519L22.9203 16.8488H27.9772C32.9496 16.8488 33.034 16.8488 33.2168 16.9425ZM21.5565 31.8182C21.1254 32.3199 20.7551 32.7324 20.727 32.7371C20.6895 32.7418 20.4833 31.3682 20.4739 31.0165L20.4692 30.9134H21.4066H22.3439L21.5565 31.8182Z" fill="url(#paint0_linear_9467_28359)"/>
<path d="M16.3845 16.2031C16.0438 16.3436 16.0578 16.2874 15.2831 20.1902C14.8865 22.1674 14.5645 23.8353 14.5645 23.8915C14.5645 24.2148 14.9238 24.5615 15.2645 24.5615C15.4931 24.5615 15.7638 24.3975 15.8618 24.1961C15.9131 24.1024 16.0531 23.512 16.1745 22.8842L16.3985 21.7504H17.3645H18.3305L18.5545 22.8842C18.6758 23.512 18.8158 24.1024 18.8671 24.1961C18.9651 24.3975 19.2358 24.5615 19.4645 24.5615C19.8051 24.5615 20.1645 24.2148 20.1645 23.8915C20.1645 23.8353 19.8425 22.1674 19.4458 20.1902C18.6665 16.2687 18.6851 16.3436 18.3305 16.1984C18.0878 16.1 16.6225 16.1 16.3845 16.2031ZM17.7705 18.9392L18.0505 20.3448H17.3645H16.6785L16.9585 18.9392L17.2385 17.5337H17.3645H17.4905L17.7705 18.9392Z" fill="url(#paint1_linear_9467_28359)"/>
<path d="M28.298 20.436C28.0253 20.5768 27.9312 20.8067 27.9312 21.3228V21.7451H26.8025C25.7584 21.7451 25.6549 21.7545 25.4856 21.8389C25.274 21.9469 25.1094 22.2143 25.1094 22.4489C25.1094 22.8102 25.4574 23.1527 25.8242 23.1527C25.9747 23.1527 25.9841 23.1668 26.0923 23.4671C26.398 24.3258 26.8777 25.2173 27.3998 25.8976L27.649 26.2261L27.428 26.4278C27.301 26.5405 26.9247 26.8548 26.5861 27.1223C26.1817 27.446 25.9465 27.6713 25.8948 27.7792C25.6126 28.3657 26.2428 29.0038 26.8166 28.7035C26.9765 28.6238 27.5644 28.1639 28.2134 27.6196C28.4297 27.432 28.6225 27.2818 28.6366 27.2818C28.6508 27.2818 28.8436 27.432 29.0599 27.6196C29.7089 28.1639 30.2968 28.6238 30.4567 28.7035C30.8941 28.9287 31.4585 28.5768 31.4585 28.0842C31.4585 27.8026 31.3174 27.629 30.6872 27.1223C30.3486 26.8548 29.9723 26.5405 29.8453 26.4278L29.6243 26.2261L29.8735 25.8976C30.3956 25.2173 30.8753 24.3258 31.181 23.4671C31.2892 23.1668 31.2986 23.1527 31.4491 23.1527C31.8159 23.1527 32.1639 22.8102 32.1639 22.4489C32.1639 22.2143 31.9993 21.9469 31.7877 21.8389C31.6184 21.7545 31.5149 21.7451 30.4708 21.7451H29.3421V21.3228C29.3421 20.7973 29.248 20.5768 28.9659 20.4313C28.7354 20.314 28.5238 20.314 28.298 20.436ZM29.7654 23.209C29.7607 23.4296 28.7589 25.1704 28.6366 25.1704C28.5144 25.1704 27.5126 23.4296 27.5079 23.209C27.5079 23.1668 27.7666 23.1527 28.6366 23.1527C29.5067 23.1527 29.7654 23.1668 29.7654 23.209Z" fill="url(#paint2_linear_9467_28359)"/>
<defs>
<linearGradient id="paint0_linear_9467_28359" x1="11" y1="23.1797" x2="35" y2="23.1797" gradientUnits="userSpaceOnUse">
<stop stop-color="#970000"/>
<stop offset="1" stop-color="#F44646"/>
</linearGradient>
<linearGradient id="paint1_linear_9467_28359" x1="14.5645" y1="20.3433" x2="20.1645" y2="20.3433" gradientUnits="userSpaceOnUse">
<stop stop-color="#970000"/>
<stop offset="1" stop-color="#F44646"/>
</linearGradient>
<linearGradient id="paint2_linear_9467_28359" x1="25.1094" y1="24.5621" x2="32.1639" y2="24.5621" gradientUnits="userSpaceOnUse">
<stop stop-color="#970000"/>
<stop offset="1" stop-color="#F44646"/>
</linearGradient>
</defs>
</svg>
