<svg width="46" height="46" viewBox="0 0 46 46" fill="none" xmlns="http://www.w3.org/2000/svg">
<circle cx="22.61" cy="23.3732" r="22.61" fill="#F7F7F7"/>
<path d="M21.8421 11.7775C19.2433 12.1017 17.2272 13.7136 16.4424 16.0898C16.1839 16.8634 16.1463 17.2246 16.1228 19.0913L16.0946 20.8098L15.7797 20.8607C15.0137 20.9765 14.431 21.449 14.1302 22.1947L14.0174 22.4726L14.0033 27.2435C13.9939 30.6619 14.0033 32.1024 14.0456 32.3294C14.1866 33.1817 14.8257 33.844 15.6763 34.0247C15.8549 34.0617 17.7817 34.0756 22.5141 34.0756C29.6338 34.0756 29.3472 34.0849 29.8688 33.8394C30.3998 33.5847 30.8463 32.964 30.9544 32.3294C30.9967 32.1024 31.0061 30.6619 30.9967 27.2435L30.9826 22.4726L30.8698 22.1947C30.569 21.449 29.9863 20.9765 29.2203 20.8607L28.9054 20.8098L28.8772 19.0913C28.8537 17.2246 28.8161 16.8634 28.5576 16.0898C28.036 14.5103 26.9081 13.1995 25.4325 12.4584C24.8967 12.1851 24.2764 11.972 23.7172 11.8655C23.3318 11.7914 22.171 11.7358 21.8421 11.7775ZM23.5245 13.2504C25.1129 13.5839 26.4382 14.6632 27.0726 16.15C27.3922 16.8911 27.4016 16.9699 27.4204 18.9848L27.4392 20.8283H22.5H17.5608L17.5796 18.9848C17.5937 17.2756 17.6031 17.1227 17.6971 16.7939C17.9697 15.8397 18.4067 15.1264 19.1164 14.464C19.9106 13.7275 20.7753 13.3384 22.0066 13.1671C22.2697 13.13 23.1814 13.181 23.5245 13.2504ZM29.2203 22.3059C29.3096 22.3522 29.427 22.4634 29.4787 22.5467C29.5727 22.6996 29.5727 22.7876 29.5727 27.452C29.5727 32.1024 29.5727 32.2043 29.4787 32.3526C29.427 32.4359 29.3002 32.5425 29.1968 32.5934C29.0041 32.6861 28.8819 32.6861 22.5 32.6861C16.1181 32.6861 15.9959 32.6861 15.8032 32.5934C15.6998 32.5425 15.573 32.4359 15.5213 32.3526C15.4273 32.2043 15.4273 32.1024 15.4273 27.452C15.4273 22.7598 15.4273 22.7042 15.5213 22.5421C15.5777 22.4541 15.6904 22.3429 15.7797 22.3012C15.9348 22.2225 16.3531 22.2179 22.5 22.2179C28.8067 22.2179 29.0652 22.2225 29.2203 22.3059Z" fill="url(#paint0_linear_9467_28343)"/>
<path d="M21.9366 24.3853C21.7675 24.427 21.5372 24.5196 21.4197 24.5891C20.4892 25.1264 20.1226 26.3168 20.5832 27.2802C20.7853 27.6971 21.1236 28.0445 21.509 28.2252L21.791 28.3549L21.7957 29.2118C21.7957 29.9343 21.8098 30.0965 21.8802 30.2308C22.1105 30.6893 22.8906 30.6893 23.1209 30.2308C23.1914 30.0965 23.2055 29.9343 23.2055 29.2118L23.2102 28.3549L23.4922 28.2252C24.1078 27.938 24.5543 27.2756 24.6013 26.5854C24.6764 25.5062 24.0326 24.6122 23.0128 24.3714C22.6275 24.2834 22.3173 24.288 21.9366 24.3853ZM22.9329 25.8351C23.323 26.1084 23.2713 26.8124 22.8483 27.0116C22.6557 27.0996 22.3455 27.0996 22.1528 27.0116C21.7581 26.8263 21.6782 26.1593 22.0212 25.8629C22.2374 25.6683 22.6792 25.6591 22.9329 25.8351Z" fill="url(#paint1_linear_9467_28343)"/>
<defs>
<linearGradient id="paint0_linear_9467_28343" x1="14" y1="22.9194" x2="31" y2="22.9194" gradientUnits="userSpaceOnUse">
<stop stop-color="#970000"/>
<stop offset="1" stop-color="#F44646"/>
</linearGradient>
<linearGradient id="paint1_linear_9467_28343" x1="20.3848" y1="27.4417" x2="24.6072" y2="27.4417" gradientUnits="userSpaceOnUse">
<stop stop-color="#970000"/>
<stop offset="1" stop-color="#F44646"/>
</linearGradient>
</defs>
</svg>
