<svg width="21" height="20" viewBox="0 0 21 20" fill="none" xmlns="http://www.w3.org/2000/svg">
<path d="M19.8085 14.6102C19.2461 13.691 18.41 11.0899 18.41 7.69264C18.41 5.65242 17.5558 3.69577 16.0353 2.25312C14.5148 0.810472 12.4526 0 10.3023 0C8.15198 0 6.08976 0.810472 4.56927 2.25312C3.04878 3.69577 2.19458 5.65242 2.19458 7.69264C2.19458 11.0909 1.35746 13.691 0.794992 14.6102C0.651355 14.844 0.575207 15.1095 0.574228 15.38C0.573249 15.6505 0.647474 15.9165 0.789417 16.1512C0.931359 16.3858 1.136 16.5808 1.3827 16.7164C1.62941 16.8521 1.90945 16.9236 2.19458 16.9238H6.33052C6.51757 17.7923 7.01503 18.5728 7.73875 19.1333C8.46248 19.6938 9.36804 20 10.3023 20C11.2365 20 12.1421 19.6938 12.8658 19.1333C13.5895 18.5728 14.087 17.7923 14.274 16.9238H18.41C18.695 16.9234 18.9749 16.8518 19.2215 16.7161C19.468 16.5804 19.6725 16.3854 19.8144 16.1508C19.9562 15.9161 20.0303 15.6502 20.0293 15.3798C20.0283 15.1093 19.9521 14.8439 19.8085 14.6102ZM10.3023 18.4623C9.79941 18.4622 9.30896 18.3142 8.89842 18.0386C8.48788 17.7631 8.17744 17.3736 8.00982 16.9238H12.5947C12.4271 17.3736 12.1167 17.7631 11.7061 18.0386C11.2956 18.3142 10.8051 18.4622 10.3023 18.4623ZM2.19458 15.3853C2.97495 14.1121 3.81612 11.162 3.81612 7.69264C3.81612 6.06047 4.49948 4.49515 5.71587 3.34103C6.93226 2.18691 8.58204 1.53853 10.3023 1.53853C12.0225 1.53853 13.6723 2.18691 14.8887 3.34103C16.1051 4.49515 16.7884 6.06047 16.7884 7.69264C16.7884 11.1591 17.6276 14.1093 18.41 15.3853H2.19458Z" fill="black" fill-opacity="0.7"/>
</svg>
