<svg width="46" height="46" viewBox="0 0 46 46" fill="none" xmlns="http://www.w3.org/2000/svg">
<circle cx="22.6109" cy="22.6109" r="22.6109" fill="#F6F6F6"/>
<g clip-path="url(#clip0_9467_28304)">
<path d="M25.8677 19.4707L25.8718 19.4954C25.8893 19.5971 25.9574 19.6845 26.0522 19.7266C26.111 19.7533 26.1677 19.777 26.1811 19.778L27.7943 19.9475C27.9809 19.9773 28.4942 20.0462 28.6829 20.0616L30.9713 20.2209C31.1775 20.2353 31.3836 20.264 31.5857 20.3062L32.0588 20.4048C32.2268 20.4398 32.3835 20.5137 32.5175 20.6196C32.6031 20.6874 32.6701 20.7758 32.7124 20.8765L32.7567 20.9834C32.8041 21.0984 32.8484 21.2146 32.8897 21.3327L32.9092 21.3893C32.9711 21.567 33.001 21.7551 32.9979 21.9431L32.9958 22.0705C32.9927 22.2596 32.9701 22.4477 32.9257 22.6316L32.8495 22.9532C32.8062 23.1372 32.7443 23.317 32.6639 23.4886L32.6134 23.5965C32.5412 23.7507 32.4495 23.8945 32.3382 24.023L32.2114 24.1709C32.0763 24.3282 31.9104 24.4576 31.7238 24.5491L31.6207 24.6005C31.4558 24.6817 31.2764 24.732 31.0929 24.7474L28.7942 24.9447L26.0151 25.1492L25.8151 25.1636C25.7151 25.1708 25.6213 25.2129 25.5502 25.2828C25.5028 25.329 25.4739 25.3907 25.4677 25.4565L25.2399 27.9093L24.8812 31.1205L24.7523 32.0238C24.7328 32.1615 24.6905 32.2951 24.6266 32.4184L24.5761 32.516C24.5503 32.5653 24.5173 32.6105 24.4782 32.6506C24.3256 32.8048 24.1277 32.9065 23.9133 32.9404L23.737 32.9681C23.5391 32.999 23.3391 33.0072 23.1391 32.9918L22.7979 32.9651C22.601 32.9496 22.4062 32.9075 22.2207 32.8387C21.8506 32.701 21.5063 32.5006 21.2053 32.2468L20.9898 32.0649C20.8538 31.9498 20.7466 31.8039 20.6796 31.6384C20.6218 31.4966 20.5858 31.3476 20.5734 31.1956L20.1435 25.8716L20.1405 25.7596C20.1384 25.7092 20.1157 25.662 20.0776 25.6301C20.0456 25.6034 20.0054 25.5911 19.9642 25.5952L19.3941 25.6486L15.9563 25.9435L15.4956 26.0093L14.9503 26.0853C14.8018 26.1059 14.6513 26.0874 14.5122 26.0329L14.506 26.0309C14.3297 25.961 14.1772 25.8469 14.0607 25.7C14.004 25.6281 13.9421 25.55 13.8885 25.4832C13.7957 25.366 13.7174 25.2396 13.6525 25.106L13.4174 24.6169C13.301 24.3744 13.2123 24.1206 13.1546 23.8586L13.1515 23.8431C13.0247 23.2739 12.9752 22.6912 13.0041 22.1106C13.0082 22.0161 13.0134 21.9277 13.0164 21.8558C13.0226 21.7284 13.0381 21.602 13.0628 21.4776L13.1288 21.1437C13.1979 20.7912 13.3576 20.4613 13.5906 20.187L13.6061 20.1685C13.737 20.0143 13.8957 19.8962 14.0751 19.815L14.0875 19.8098C14.4864 19.631 14.9193 19.5386 15.3574 19.5386H16.4295L19.4467 19.4543C19.5632 19.4512 19.6529 19.3505 19.6426 19.2354L19.4869 17.4248L19.3519 15.756L19.3364 15.5433L19.3065 15.123C19.3065 15.123 19.322 15.3439 19.322 15.3419C19.3045 14.7438 19.3931 14.5188 19.591 14.3081L19.7405 14.1571C20.0704 13.8231 20.461 13.5528 20.8909 13.3617C21.1228 13.259 21.3661 13.185 21.6166 13.1418L21.8774 13.0966C22.2464 13.0319 22.6185 13 22.9907 13H23.1834C23.4968 13 23.8091 13.0349 24.1153 13.1038C24.4431 13.1778 24.7493 13.3257 25.0101 13.5364L25.0698 13.5847C25.2739 13.7491 25.4317 13.9629 25.5286 14.2054L25.5749 14.3215C25.6564 14.526 25.7162 14.7377 25.7533 14.9545L25.7667 15.0326C25.8038 15.2545 25.8234 15.4785 25.8234 15.7036V17.1905L25.8512 19.1481L25.8543 19.333" fill="url(#paint0_linear_9467_28304)"/>
</g>
<defs>
<linearGradient id="paint0_linear_9467_28304" x1="12.9961" y1="22.9997" x2="32.9981" y2="22.9997" gradientUnits="userSpaceOnUse">
<stop stop-color="#970000"/>
<stop offset="1" stop-color="#F44646"/>
</linearGradient>
<clipPath id="clip0_9467_28304">
<rect width="20" height="20" fill="white" transform="translate(13 13)"/>
</clipPath>
</defs>
</svg>
