<svg width="25" height="23" viewBox="0 0 25 23" fill="none" xmlns="http://www.w3.org/2000/svg">
<g clip-path="url(#clip0_9467_29090)">
<path d="M15.7946 7.44135L15.7994 7.46971C15.8201 7.5867 15.9002 7.68715 16.0119 7.7356C16.0811 7.76633 16.1478 7.79351 16.1636 7.79469L18.0633 7.98967C18.283 8.02394 18.8874 8.10312 19.1096 8.12084L21.8043 8.30401C22.0471 8.32056 22.2898 8.35365 22.5278 8.4021L23.0849 8.51554C23.2828 8.55572 23.4673 8.64081 23.6251 8.76252C23.7258 8.84052 23.8047 8.94215 23.8545 9.05796L23.9067 9.18086C23.9625 9.31321 24.0147 9.44674 24.0633 9.58264L24.0863 9.64764C24.1591 9.85208 24.1943 10.0683 24.1907 10.2846L24.1883 10.4311C24.1846 10.6486 24.1579 10.8648 24.1057 11.0764L24.0159 11.4462C23.9649 11.6578 23.8921 11.8646 23.7974 12.0619L23.7379 12.186C23.653 12.3633 23.5449 12.5287 23.4139 12.6764L23.2645 12.8466C23.1055 13.0274 22.9101 13.1763 22.6904 13.2815L22.569 13.3405C22.3748 13.4339 22.1636 13.4918 21.9475 13.5095L19.2407 13.7364L15.9682 13.9716L15.7327 13.9881C15.6149 13.9964 15.5045 14.0449 15.4207 14.1252C15.3649 14.1784 15.3309 14.2493 15.3236 14.3249L15.0554 17.1457L14.6329 20.8386L14.4812 21.8774C14.4581 22.0357 14.4084 22.1893 14.3331 22.3311L14.2736 22.4434C14.2433 22.5001 14.2045 22.5521 14.1583 22.5982C13.9787 22.7755 13.7456 22.8925 13.4931 22.9315L13.2856 22.9634C13.0525 22.9988 12.817 23.0083 12.5816 22.9905L12.1798 22.9598C11.9479 22.9421 11.7185 22.8936 11.5 22.8145C11.0643 22.6561 10.6588 22.4257 10.3044 22.1338L10.0507 21.9246C9.89047 21.7923 9.76424 21.6245 9.68534 21.4342C9.61736 21.2711 9.57488 21.0998 9.56031 20.9249L9.05414 14.8023L9.0505 14.6735C9.04807 14.6156 9.02137 14.5613 8.97645 14.5246C8.93882 14.4939 8.89149 14.4797 8.84293 14.4845L8.17168 14.5459L4.12353 14.8851L3.58094 14.9607L2.93882 15.0481C2.76403 15.0718 2.58681 15.0505 2.42294 14.9879L2.41566 14.9855C2.20809 14.9052 2.02844 14.774 1.89128 14.605C1.82452 14.5223 1.75169 14.4325 1.68857 14.3556C1.57932 14.2209 1.48707 14.0756 1.4106 13.922L1.13384 13.3595C0.99668 13.0806 0.89229 12.7887 0.824315 12.4873L0.820673 12.4696C0.671371 11.8149 0.613107 11.1449 0.647094 10.4772C0.65195 10.3685 0.658019 10.2669 0.66166 10.1841C0.668943 10.0376 0.687151 9.89226 0.716283 9.74927L0.793969 9.36521C0.875296 8.95987 1.06344 8.58054 1.33777 8.26502L1.35598 8.24374C1.51013 8.06649 1.69706 7.93059 1.90827 7.83723L1.92284 7.83132C2.39259 7.6257 2.90241 7.51934 3.41829 7.51934H4.68068L8.23359 7.42244C8.37075 7.4189 8.47635 7.30309 8.46421 7.17073L8.28093 5.08853L8.12191 3.1694L8.1037 2.92478L8.0685 2.44145C8.0685 2.44145 8.08671 2.69552 8.08671 2.69316C8.06608 2.00539 8.17047 1.7466 8.40352 1.50434L8.57953 1.33063C8.96796 0.946565 9.428 0.63577 9.93417 0.415969C10.2073 0.297796 10.4938 0.212711 10.7887 0.163079L11.0958 0.111083C11.5304 0.0366336 11.9686 0 12.4068 0H12.6337C13.0028 0 13.3706 0.0401788 13.7311 0.119355C14.1171 0.204439 14.4776 0.374608 14.7847 0.616863L14.8551 0.672404C15.0954 0.861481 15.2811 1.10728 15.3952 1.38617L15.4499 1.5197C15.5457 1.75487 15.6162 1.9983 15.6599 2.24765L15.6756 2.33746C15.7193 2.59271 15.7424 2.85033 15.7424 3.10913V4.81909L15.7752 7.07029L15.7788 7.283" fill="url(#paint0_linear_9467_29090)"/>
</g>
<defs>
<linearGradient id="paint0_linear_9467_29090" x1="12.4143" y1="0" x2="12.4143" y2="22.9993" gradientUnits="userSpaceOnUse">
<stop stop-color="#CA0000"/>
<stop offset="1" stop-color="#640000"/>
</linearGradient>
<clipPath id="clip0_9467_29090">
<rect width="23.5509" height="23" fill="white" transform="translate(0.640625)"/>
</clipPath>
</defs>
</svg>
