<svg width="46" height="46" viewBox="0 0 46 46" fill="none" xmlns="http://www.w3.org/2000/svg">
<circle cx="22.61" cy="23.0734" r="22.61" fill="#F7F7F7"/>
<path fill-rule="evenodd" clip-rule="evenodd" d="M13.1562 12.6401C17.1543 12.6401 21.1523 12.6401 25.1504 12.6401C26.3427 12.9266 27.054 13.6753 27.2842 14.8862C27.3141 16.8179 27.3141 18.7495 27.2842 20.6812C27.0285 21.2305 26.6317 21.3578 26.0938 21.063C25.9711 20.945 25.8887 20.8028 25.8467 20.6362C25.8317 18.7645 25.8167 16.8927 25.8018 15.021C25.623 14.4634 25.2412 14.1565 24.6562 14.1001C20.9727 14.0701 17.2891 14.0701 13.6055 14.1001C13.0453 14.1516 12.6784 14.4435 12.5049 14.9761C12.4307 20.0212 12.4157 25.0674 12.46 30.1147C12.5214 30.82 12.9032 31.2168 13.6055 31.3052C16.2109 31.3201 18.8164 31.3351 21.4219 31.3501C21.8254 31.551 21.9676 31.873 21.8486 32.3159C21.7663 32.5181 21.624 32.6603 21.4219 32.7427C18.6667 32.7726 15.9114 32.7726 13.1562 32.7427C11.994 32.4713 11.2752 31.7601 11 30.6089C11 25.3381 11 20.0672 11 14.7964C11.2833 13.6446 12.0021 12.9258 13.1562 12.6401Z" fill="url(#paint0_linear_9467_28392)"/>
<path fill-rule="evenodd" clip-rule="evenodd" d="M14.3689 16.2816C15.9562 16.2741 17.5434 16.2816 19.1306 16.3041C19.5682 16.483 19.7254 16.805 19.6023 17.2699C19.496 17.526 19.3089 17.6833 19.0407 17.7416C17.4984 17.7715 15.9561 17.7715 14.4138 17.7416C13.9516 17.5586 13.7794 17.2217 13.8972 16.7308C13.9918 16.5088 14.149 16.3591 14.3689 16.2816Z" fill="url(#paint1_linear_9467_28392)"/>
<path fill-rule="evenodd" clip-rule="evenodd" d="M14.4145 20.1C17.5591 20.0925 20.7037 20.1 23.8481 20.1224C24.4079 20.3337 24.5651 20.7155 24.3198 21.268C24.2181 21.3997 24.0908 21.4971 23.938 21.5599C20.7485 21.5899 17.5591 21.5899 14.3696 21.5599C13.8617 21.3138 13.7345 20.932 13.9878 20.4144C14.1014 20.2624 14.2436 20.1576 14.4145 20.1Z" fill="url(#paint2_linear_9467_28392)"/>
<path fill-rule="evenodd" clip-rule="evenodd" d="M34.0003 24.4097C34.0003 26.0269 34.0003 27.644 34.0003 29.2612C33.7945 30.6012 33.2479 31.7842 32.3606 32.8101C31.2617 34.0072 29.9815 34.9506 28.5198 35.6401C28.3401 35.6401 28.1604 35.6401 27.9807 35.6401C26.417 34.9232 25.0768 33.905 23.9602 32.5854C23.1855 31.6103 22.7064 30.5022 22.5227 29.2612C22.4787 27.5964 22.4936 25.9343 22.5676 24.2749C22.6778 24.1257 22.82 24.0134 22.9944 23.938C24.7377 23.3294 26.4896 22.7529 28.2503 22.2085C30.0109 22.7529 31.7628 23.3294 33.5061 23.938C33.7544 24.0156 33.9191 24.1728 34.0003 24.4097ZM28.1604 23.7358C29.6304 24.2059 31.0978 24.685 32.5628 25.1733C32.5796 26.4919 32.5571 27.8097 32.4954 29.1265C32.3579 29.9888 32.0284 30.7675 31.5071 31.4624C30.6127 32.5744 29.5271 33.4429 28.2503 34.0679C26.9734 33.4429 25.8879 32.5744 24.9934 31.4624C24.4721 30.7675 24.1426 29.9888 24.0051 29.1265C23.9434 27.8097 23.921 26.4919 23.9378 25.1733C25.3581 24.7199 26.7657 24.2407 28.1604 23.7358Z" fill="url(#paint3_linear_9467_28392)"/>
<path fill-rule="evenodd" clip-rule="evenodd" d="M14.3252 23.9633C16.2569 23.9558 18.1885 23.9633 20.1201 23.9857C20.5958 24.2299 20.7231 24.5968 20.5019 25.0863C20.4002 25.2181 20.2729 25.3154 20.1201 25.3783C18.1884 25.4083 16.2568 25.4083 14.3252 25.3783C14.0113 25.2522 13.8616 25.0201 13.8759 24.682C13.8671 24.3399 14.0168 24.1003 14.3252 23.9633Z" fill="url(#paint4_linear_9467_28392)"/>
<path fill-rule="evenodd" clip-rule="evenodd" d="M30.721 25.8501C31.3879 25.8505 31.6799 26.1799 31.597 26.8384C30.6047 28.209 29.6014 29.5717 28.5872 30.9263C28.278 31.1799 27.9411 31.2173 27.5765 31.0386C26.8802 30.3423 26.1839 29.646 25.4876 28.9497C25.3264 28.6248 25.3413 28.3103 25.5326 28.0063C25.8672 27.7356 26.2191 27.7131 26.5882 27.939C27.0306 28.3888 27.4798 28.8306 27.9359 29.2642C28.7306 28.2223 29.5168 27.1742 30.2943 26.1196C30.422 26 30.5642 25.9102 30.721 25.8501Z" fill="url(#paint5_linear_9467_28392)"/>
<defs>
<linearGradient id="paint0_linear_9467_28392" x1="11" y1="22.7026" x2="27.3067" y2="22.7026" gradientUnits="userSpaceOnUse">
<stop stop-color="#970000"/>
<stop offset="1" stop-color="#F44646"/>
</linearGradient>
<linearGradient id="paint1_linear_9467_28392" x1="13.8613" y1="17.0214" x2="19.6428" y2="17.0214" gradientUnits="userSpaceOnUse">
<stop stop-color="#970000"/>
<stop offset="1" stop-color="#F44646"/>
</linearGradient>
<linearGradient id="paint2_linear_9467_28392" x1="13.8613" y1="20.8398" x2="24.4319" y2="20.8398" gradientUnits="userSpaceOnUse">
<stop stop-color="#970000"/>
<stop offset="1" stop-color="#F44646"/>
</linearGradient>
<linearGradient id="paint3_linear_9467_28392" x1="22.498" y1="28.9243" x2="34.0003" y2="28.9243" gradientUnits="userSpaceOnUse">
<stop stop-color="#970000"/>
<stop offset="1" stop-color="#F44646"/>
</linearGradient>
<linearGradient id="paint4_linear_9467_28392" x1="13.875" y1="24.6806" x2="20.6072" y2="24.6806" gradientUnits="userSpaceOnUse">
<stop stop-color="#970000"/>
<stop offset="1" stop-color="#F44646"/>
</linearGradient>
<linearGradient id="paint5_linear_9467_28392" x1="25.377" y1="28.4997" x2="31.6108" y2="28.4997" gradientUnits="userSpaceOnUse">
<stop stop-color="#970000"/>
<stop offset="1" stop-color="#F44646"/>
</linearGradient>
</defs>
</svg>
