<svg width="46" height="46" viewBox="0 0 46 46" fill="none" xmlns="http://www.w3.org/2000/svg">
<circle cx="22.61" cy="22.61" r="22.61" fill="#F7F7F7"/>
<circle cx="22.61" cy="22.61" r="22.61" fill="#F7F7F7"/>
<path d="M21.7854 11.0845C18.6816 11.6313 16.4998 14.4671 16.8107 17.5495C17.2342 21.6933 21.5603 24.1913 25.2859 22.4384C27.0121 21.629 28.1646 20.2245 28.631 18.3589C28.7329 17.9623 28.7489 17.7425 28.7489 16.9759C28.7436 16.1557 28.7275 16.011 28.5988 15.5285C28.3094 14.4617 27.6446 13.3253 26.9049 12.6445C25.5164 11.3526 23.5813 10.7682 21.7854 11.0845ZM23.5384 12.7892C25.2323 13.1216 26.4492 14.2473 26.937 15.9306C27.0764 16.4237 27.0764 17.5816 26.937 18.0748C26.2026 20.6158 23.592 21.9345 21.1904 20.9696C19.0568 20.1172 17.9686 17.6996 18.7567 15.55C19.4696 13.5933 21.5388 12.3979 23.5384 12.7892Z" fill="url(#paint0_linear_9467_28368)"/>
<path d="M22.1056 24.0571C22.0199 24.0678 21.6929 24.1054 21.3819 24.1375C20.7547 24.2072 19.8166 24.4216 19.1305 24.6575C16.2303 25.6439 13.7644 27.8953 12.5315 30.6722C12.0329 31.7979 11.915 32.3769 12.0544 32.9826C12.2795 33.9583 13.1319 34.7838 14.0968 34.9607C14.2898 34.9982 16.5681 35.0089 20.6422 35.0036C26.8659 34.9875 26.8981 34.9875 27.0428 34.8749C27.3269 34.6659 27.4127 34.4943 27.4127 34.1566C27.4127 33.8189 27.3269 33.6473 27.0428 33.4383C26.8981 33.3257 26.8552 33.3257 20.5832 33.2989L14.2683 33.2721L14.07 33.1166C13.8556 32.9558 13.7162 32.6985 13.7162 32.4734C13.7162 32.2911 13.9521 31.6425 14.2094 31.1278C15.2065 29.1283 16.7396 27.6166 18.7123 26.6838C20.9745 25.6117 23.5208 25.467 25.9171 26.2764C26.4585 26.464 26.748 26.4801 27.0106 26.3354C27.2251 26.2228 27.4395 25.8583 27.4395 25.6171C27.4395 25.3758 27.2411 25.0059 27.0482 24.8934C26.6676 24.6629 25.3542 24.2983 24.4322 24.1643C23.8639 24.0786 22.4166 24.0142 22.1056 24.0571Z" fill="url(#paint1_linear_9467_28368)"/>
<path d="M32.8028 26.097C32.7182 26.1431 31.6111 27.2195 30.3425 28.4803L28.0361 30.7791L26.7675 29.5029C26.0679 28.8032 25.4067 28.1805 25.2914 28.119C24.5302 27.7192 23.6999 28.6033 24.1074 29.3799C24.2457 29.6259 27.4287 32.8011 27.667 32.9242C27.8823 33.0318 28.1898 33.0318 28.4051 32.9242C28.6434 32.8011 33.9022 27.5577 34.0406 27.304C34.179 27.0349 34.179 26.8274 34.0252 26.5045C33.8176 26.0739 33.218 25.874 32.8028 26.097Z" fill="url(#paint2_linear_9467_28368)"/>
<defs>
<linearGradient id="paint0_linear_9467_28368" x1="16.7812" y1="17.003" x2="28.7489" y2="17.003" gradientUnits="userSpaceOnUse">
<stop stop-color="#970000"/>
<stop offset="1" stop-color="#F44646"/>
</linearGradient>
<linearGradient id="paint1_linear_9467_28368" x1="12" y1="29.5242" x2="27.4395" y2="29.5242" gradientUnits="userSpaceOnUse">
<stop stop-color="#970000"/>
<stop offset="1" stop-color="#F44646"/>
</linearGradient>
<linearGradient id="paint2_linear_9467_28368" x1="24" y1="29.5049" x2="34.1425" y2="29.5049" gradientUnits="userSpaceOnUse">
<stop stop-color="#970000"/>
<stop offset="1" stop-color="#F44646"/>
</linearGradient>
</defs>
</svg>
