<svg width="46" height="46" viewBox="0 0 46 46" fill="none" xmlns="http://www.w3.org/2000/svg">
<circle cx="22.61" cy="22.61" r="22.61" fill="#F7F7F7"/>
<path d="M15.5273 13.048C14.9404 13.1771 14.5336 13.3727 14.1071 13.7326C13.6494 14.1121 13.2895 14.6598 13.1095 15.2388C13.0369 15.4722 13 15.7152 13 15.9596V23.0044V30.0492C13 30.2937 13.0369 30.5367 13.1095 30.7701C13.4225 31.7833 14.2167 32.5775 15.2299 32.8905C15.4633 32.9631 15.7063 33 15.9508 33H20.0419H24.133C24.3774 33 24.6205 32.9631 24.8538 32.8905C25.8671 32.5775 26.6652 31.7794 26.9742 30.7701C27.0799 30.418 27.0799 30.4141 27.0838 29.2443C27.0838 28.0746 27.0838 28.0707 26.9899 27.922C26.939 27.8399 26.8256 27.7264 26.7395 27.6677C26.6065 27.5777 26.5361 27.5621 26.3209 27.5621C26.1057 27.5621 26.0353 27.5777 25.9023 27.6677C25.8162 27.7264 25.7028 27.8399 25.6519 27.922C25.5619 28.0668 25.558 28.102 25.5346 29.1465C25.515 30.1441 25.5072 30.238 25.425 30.4493C25.2568 30.8796 24.9086 31.2121 24.4665 31.3647C24.2788 31.4312 24.0049 31.4351 20.0223 31.4351H16.0217C15.8605 31.4351 15.7006 31.4046 15.5507 31.3452C15.1165 31.1691 14.7879 30.8248 14.6353 30.3828C14.5688 30.195 14.5649 29.8116 14.5649 23.0044C14.5649 16.1973 14.5688 15.8139 14.6353 15.6261C14.7879 15.184 15.1165 14.8398 15.5507 14.6637C15.7006 14.6043 15.8605 14.5737 16.0217 14.5737H20.0223C24.0049 14.5737 24.2788 14.5776 24.4665 14.6442C24.9086 14.7967 25.2568 15.1293 25.425 15.5596C25.5072 15.7709 25.515 15.8647 25.5346 16.8663L25.5539 17.7573C25.5566 17.8805 25.5947 18.0003 25.6637 18.1025C25.8241 18.3451 26.0158 18.4468 26.3209 18.4468C26.626 18.4468 26.8177 18.3451 26.9781 18.1025C27.047 17.9979 27.0838 17.8753 27.0838 17.75V16.7685C27.0799 15.5948 27.0799 15.5909 26.9742 15.2388C26.6652 14.2295 25.8671 13.4314 24.8538 13.1184C24.6204 13.0458 24.3774 13.0086 24.133 13.0082L20.1397 13.001C16.5249 12.9971 15.7346 13.005 15.5273 13.048Z" fill="url(#paint0_linear_9467_28291)"/>
<path d="M29.8224 19.7539C29.4781 19.9143 29.3021 20.2663 29.3803 20.6419C29.4156 20.8219 29.4703 20.8845 30.1276 21.5456L30.8357 22.2615L26.0042 22.2694L21.1726 22.2811L21.0122 22.3867C20.7658 22.5471 20.668 22.7388 20.668 23.0479C20.668 23.2591 20.6875 23.3296 20.7736 23.4626C20.8323 23.5486 20.9457 23.6621 21.0279 23.713L21.1765 23.8068L26.0042 23.8186L30.8357 23.8264L30.1276 24.5423C29.4703 25.2035 29.4156 25.2661 29.3803 25.446C29.2473 26.0798 29.8733 26.6001 30.4484 26.3341C30.5501 26.2872 30.9648 25.8959 31.6455 25.2113C32.6118 24.2333 32.6939 24.1394 32.8191 23.8655C32.9482 23.576 32.9521 23.5643 32.9521 23.044C32.9521 22.5237 32.9482 22.5119 32.8191 22.2224C32.6939 21.9486 32.6118 21.8547 31.6455 20.8766C30.9648 20.192 30.5501 19.8008 30.4484 19.7539C30.2488 19.66 30.0219 19.66 29.8224 19.7539Z" fill="url(#paint1_linear_9467_28291)"/>
<defs>
<linearGradient id="paint0_linear_9467_28291" x1="13" y1="23.0001" x2="27.0838" y2="23.0001" gradientUnits="userSpaceOnUse">
<stop stop-color="#970000"/>
<stop offset="1" stop-color="#F44646"/>
</linearGradient>
<linearGradient id="paint1_linear_9467_28291" x1="20.668" y1="23.0444" x2="32.9521" y2="23.0444" gradientUnits="userSpaceOnUse">
<stop stop-color="#970000"/>
<stop offset="1" stop-color="#F44646"/>
</linearGradient>
</defs>
</svg>
