<svg width="46" height="47" viewBox="0 0 46 47" fill="none" xmlns="http://www.w3.org/2000/svg">
<circle cx="22.61" cy="23.5534" r="22.61" fill="#F7F7F7"/>
<path d="M10.8975 17.0615C9.98169 17.2958 9.21462 17.7797 8.69801 18.4449C7.85266 19.526 7.76656 21.2118 8.48667 22.376C9.02676 23.2529 9.9269 23.8124 11.9072 24.5003C12.5334 24.7195 13.2066 24.9766 13.4022 25.0749C14.2867 25.4982 14.5685 26.3071 14.0989 27.048C13.6292 27.8039 11.735 27.8947 10.9288 27.2067C10.5766 26.9119 10.5061 26.7834 10.42 26.2693C10.3261 25.7401 10.1148 25.4528 9.67643 25.2941C9.23027 25.1278 8.86239 25.1883 8.50233 25.4906C8.11879 25.8233 8.01703 26.1937 8.13444 26.859C8.26751 27.6074 8.56495 28.1517 9.12069 28.6884C9.98169 29.5125 11.1323 29.9434 12.4864 29.9434C13.3709 29.9434 14.0441 29.7922 14.7329 29.4444C16.4471 28.575 17.1515 26.4659 16.314 24.7422C16.0244 24.145 15.3043 23.4797 14.5294 23.0866C14.185 22.9203 13.3944 22.5952 12.7682 22.3836C10.7096 21.6654 10.3418 21.3857 10.3418 20.5617C10.3418 20.161 10.5061 19.8132 10.8036 19.5638C11.1245 19.3067 11.5002 19.2085 12.1968 19.2085C13.3083 19.2085 14.1145 19.7074 14.2163 20.4709C14.2867 21.0304 14.4824 21.3403 14.8816 21.5369C15.5234 21.8544 16.0948 21.6578 16.4392 20.9926C16.6114 20.6524 16.6193 20.607 16.5332 20.093C16.2827 18.6112 15.226 17.5453 13.551 17.0993C12.8465 16.9103 11.5472 16.8876 10.8975 17.0615Z" fill="url(#paint0_linear_9467_28314)"/>
<path d="M20.4209 17.0799C19.3313 17.4713 18.5487 18.2767 18.2341 19.3305C18.1267 19.6842 18.1113 20.2864 18.1113 23.41C18.1113 26.7971 18.119 27.1133 18.2571 27.5348C18.6715 28.8369 19.7764 29.7176 21.1959 29.8756C22.0015 29.9659 22.9683 29.9659 23.7126 29.8756C25.2472 29.6799 26.4519 28.5283 26.6974 27.0154C26.8049 26.3681 26.8049 20.4369 26.6974 19.7896C26.5209 18.6756 25.8227 17.7423 24.7945 17.2455C24.4156 17.0621 24.0007 16.9651 23.5798 16.9613L22.531 16.952C21.0117 16.9294 20.7969 16.9444 20.4209 17.0799ZM23.9198 19.338C24.4492 19.6541 24.4416 19.5939 24.4416 23.4025C24.4416 26.7143 24.4339 26.8348 24.2881 27.0907C23.9889 27.5874 23.751 27.6552 22.4082 27.6552C21.1115 27.6552 20.935 27.61 20.6051 27.181C20.4593 26.9853 20.4516 26.8573 20.4516 23.4025C20.4516 19.9477 20.4593 19.8197 20.6051 19.624C20.9197 19.2251 21.0424 19.195 22.4082 19.1875C23.5285 19.1875 23.705 19.2025 23.9198 19.338Z" fill="url(#paint1_linear_9467_28314)"/>
<path d="M31.1206 17.0578C29.1515 17.5644 27.9482 19.3112 28.2764 21.179C28.5577 22.7746 29.5579 23.6291 32.1911 24.5139C33.3398 24.8995 34.1055 25.2852 34.3321 25.5877C34.465 25.7691 34.5041 25.928 34.5041 26.3212C34.5041 26.7446 34.4728 26.8581 34.2931 27.0849C33.9962 27.463 33.5976 27.6294 32.8944 27.6596C32.0661 27.6975 31.5191 27.5387 31.0738 27.1227C30.7846 26.8581 30.7221 26.7446 30.6752 26.427C30.6049 25.8826 30.4877 25.6482 30.2142 25.444C29.7298 25.0886 29.175 25.1037 28.7218 25.4894C28.3545 25.807 28.2529 26.1775 28.3701 26.8429C28.503 27.584 28.8234 28.189 29.3781 28.7183C30.2142 29.5199 31.3707 29.9434 32.7381 29.9434C33.9805 29.9434 34.9338 29.6106 35.7308 28.8922C36.2778 28.4007 36.5513 27.9772 36.7466 27.3042C37.0905 26.1094 36.8013 24.8315 36.0043 23.9921C35.387 23.3418 34.676 22.9637 32.9569 22.3738C31.3785 21.8218 30.9331 21.5723 30.6752 21.0883C30.4252 20.627 30.6362 19.833 31.0738 19.5305C31.8473 19.0087 33.4257 19.1222 34.0743 19.7423C34.3009 19.9616 34.4103 20.2413 34.5041 20.8085C34.5978 21.3908 35.3323 21.8142 35.9418 21.6327C36.3247 21.5269 36.7076 21.1185 36.7779 20.748C36.8482 20.3699 36.6919 19.5759 36.4419 19.0617C36.0121 18.1769 34.8635 17.3527 33.6445 17.0502C33.0585 16.9065 31.6832 16.9065 31.1206 17.0578Z" fill="url(#paint2_linear_9467_28314)"/>
<defs>
<linearGradient id="paint0_linear_9467_28314" x1="8" y1="23.4434" x2="16.6667" y2="23.4434" gradientUnits="userSpaceOnUse">
<stop stop-color="#970000"/>
<stop offset="1" stop-color="#F44646"/>
</linearGradient>
<linearGradient id="paint1_linear_9467_28314" x1="18.1113" y1="23.4434" x2="26.778" y2="23.4434" gradientUnits="userSpaceOnUse">
<stop stop-color="#970000"/>
<stop offset="1" stop-color="#F44646"/>
</linearGradient>
<linearGradient id="paint2_linear_9467_28314" x1="28.2227" y1="23.4434" x2="36.8893" y2="23.4434" gradientUnits="userSpaceOnUse">
<stop stop-color="#970000"/>
<stop offset="1" stop-color="#F44646"/>
</linearGradient>
</defs>
</svg>
