<svg width="46" height="46" viewBox="0 0 46 46" fill="none" xmlns="http://www.w3.org/2000/svg">
<circle cx="22.61" cy="23.3131" r="22.61" fill="#F7F7F7"/>
<path d="M21.1603 10.7405C18.473 11.0656 16.117 12.1025 14.166 13.8204C12.0739 15.661 10.5768 18.3421 10.1105 21.0601C10.0737 21.2932 10.0247 21.4773 10.0062 21.4773C9.98171 21.4773 9.74857 21.2625 9.48475 20.9987C9.01846 20.5386 9.00006 20.5263 8.70556 20.5263C8.44174 20.5263 8.37425 20.557 8.20247 20.7288C8.03068 20.9006 8 20.968 8 21.2319C8 21.4245 8.07569 21.6095 8.21076 21.7469L9.07368 22.6246C9.66267 23.2258 10.2148 23.7658 10.3007 23.821C10.4787 23.9498 10.8284 23.9621 11.0063 23.8516C11.0738 23.8087 11.626 23.2749 12.2334 22.6553L13.1275 21.7413C13.2623 21.6035 13.3377 21.4184 13.3377 21.2257C13.3377 20.968 13.3071 20.9006 13.1353 20.7288C12.9635 20.557 12.896 20.5263 12.6322 20.5263C12.3438 20.5263 12.3131 20.5447 11.9573 20.8944C11.7548 21.0969 11.5892 21.2257 11.5892 21.1889C11.5892 21.1521 11.6689 20.8024 11.7671 20.422C12.804 16.4095 16.0618 13.2805 20.1173 12.4093C25.4366 11.262 30.8111 14.1701 32.756 19.2379C32.8358 19.4404 32.9769 19.6858 33.075 19.7901C33.2223 19.9434 33.2959 19.9741 33.5536 19.9741C33.799 19.9741 33.8849 19.9434 34.0383 19.7962C34.4125 19.4404 34.3573 19.109 33.707 17.7593C31.9277 14.0781 28.4858 11.5074 24.412 10.8325C23.7187 10.7159 21.8106 10.6607 21.1603 10.7405Z" fill="url(#paint0_linear_9467_28332)"/>
<path d="M21.3435 15.7036C20.2024 15.949 19.2637 16.4521 18.4722 17.2436C17.4415 18.2743 16.8893 19.532 16.8218 20.9861C16.7482 22.569 17.3372 24.0844 18.4538 25.2011L18.5634 25.3107C18.7133 25.4606 18.6583 25.7153 18.4599 25.7901C17.2942 26.2195 16.2144 27.146 15.5702 28.2749C15.1653 28.9804 15.1898 29.4958 15.6377 29.7289C16.061 29.9498 16.4598 29.7657 16.7359 29.2258C17.2574 28.1828 18.1041 27.4527 19.2268 27.0723C19.5519 26.9626 19.8926 26.9067 20.2357 26.9067H22.4479H24.6601C25.0031 26.9067 25.3439 26.9626 25.6689 27.0723C26.7917 27.4527 27.6384 28.1828 28.1599 29.2258C28.436 29.7657 28.8348 29.9498 29.2581 29.7289C29.6753 29.5142 29.7305 29.0418 29.4115 28.4344C28.8041 27.2748 27.7733 26.3361 26.5463 25.833L26.2418 25.7064C26.1324 25.661 26.111 25.5153 26.2027 25.4403C26.5279 25.1704 27.0371 24.5446 27.3071 24.0906C28.6077 21.8819 28.2458 19.0658 26.4297 17.2497C25.0983 15.9183 23.1412 15.3232 21.3435 15.7036ZM23.2946 17.1577C24.2271 17.3479 25.1781 17.9369 25.7364 18.6731C27.0187 20.3664 26.8714 22.6856 25.3867 24.1703C23.3375 26.2134 19.8956 25.606 18.6685 22.9801C18.2943 22.1702 18.19 21.2683 18.374 20.3848C18.8342 18.1393 21.0306 16.6975 23.2946 17.1577Z" fill="url(#paint1_linear_9467_28332)"/>
<path d="M33.891 22.5388C33.8235 22.5818 33.2713 23.1156 32.6639 23.7352L31.7698 24.6492C31.635 24.787 31.5595 24.972 31.5595 25.1648C31.5595 25.4224 31.5902 25.4899 31.762 25.6617C31.9338 25.8335 32.0013 25.8642 32.2651 25.8642C32.5535 25.8642 32.5841 25.8458 32.94 25.4961C33.1424 25.2936 33.3081 25.1648 33.3081 25.2016C33.3081 25.3734 32.9277 26.7109 32.7621 27.1403C31.6884 29.846 29.7987 31.8952 27.228 33.1284C23.3075 35.0242 18.706 34.4475 15.3623 31.6498C13.9328 30.4534 12.8039 28.8766 12.1413 27.1526C12.0615 26.9501 11.9204 26.6986 11.8222 26.6004C11.675 26.4409 11.6013 26.4164 11.3375 26.4164C11.0553 26.4164 11.0062 26.4409 10.816 26.6434C10.681 26.7968 10.6074 26.9379 10.6074 27.0483C10.6074 27.5146 11.3375 29.073 12.0738 30.165C15.0187 34.5579 20.4239 36.6255 25.5469 35.3126C29.4735 34.3064 32.67 31.4596 34.1241 27.6741C34.4002 26.9501 34.6517 26.0666 34.7806 25.3243C34.8235 25.0973 34.8726 24.9132 34.891 24.9132C34.9156 24.9132 35.1487 25.1279 35.4125 25.3856C35.8788 25.8519 35.8972 25.8642 36.1917 25.8642C36.4555 25.8642 36.523 25.8335 36.6948 25.6617C36.8666 25.4899 36.8973 25.4224 36.8973 25.1648C36.8973 24.972 36.8218 24.787 36.687 24.6492L35.7929 23.7352C35.1855 23.1156 34.6333 22.5818 34.5658 22.5388C34.4984 22.4959 34.345 22.4652 34.2284 22.4652C34.1118 22.4652 33.9584 22.4959 33.891 22.5388Z" fill="url(#paint2_linear_9467_28332)"/>
<defs>
<linearGradient id="paint0_linear_9467_28332" x1="8" y1="17.3149" x2="34.2707" y2="17.3149" gradientUnits="userSpaceOnUse">
<stop stop-color="#970000"/>
<stop offset="1" stop-color="#F44646"/>
</linearGradient>
<linearGradient id="paint1_linear_9467_28332" x1="15.2832" y1="22.7054" x2="29.6164" y2="22.7054" gradientUnits="userSpaceOnUse">
<stop stop-color="#970000"/>
<stop offset="1" stop-color="#F44646"/>
</linearGradient>
<linearGradient id="paint2_linear_9467_28332" x1="10.6074" y1="29.0842" x2="36.8973" y2="29.0842" gradientUnits="userSpaceOnUse">
<stop stop-color="#970000"/>
<stop offset="1" stop-color="#F44646"/>
</linearGradient>
</defs>
</svg>
