<svg width="12" height="22" viewBox="0 0 12 22" fill="none" xmlns="http://www.w3.org/2000/svg">
<path opacity="0.943" fill-rule="evenodd" clip-rule="evenodd" d="M5.78177 0.0125763C6.14194 -0.0437117 6.39893 0.088947 6.55284 0.410547C6.58602 1.2894 6.58602 2.16825 6.55284 3.0471C6.3066 3.42995 5.98325 3.51288 5.58279 3.29584C5.51508 3.21982 5.45703 3.1369 5.40867 3.0471C5.37549 2.16825 5.37549 1.2894 5.40867 0.410547C5.47598 0.219019 5.60035 0.0863602 5.78177 0.0125763Z" fill="black"/>
<path opacity="0.921" fill-rule="evenodd" clip-rule="evenodd" d="M0.509069 0.311035C0.66766 0.316895 0.816899 0.358349 0.956786 0.435401C1.62836 1.10698 2.29994 1.77855 2.97151 2.45013C3.20423 2.97963 3.03842 3.31129 2.47405 3.44506C2.31601 3.42561 2.17507 3.3676 2.05121 3.27094C1.41281 2.63253 0.774366 1.99412 0.135971 1.35571C-0.130073 0.868786 -0.00570659 0.520562 0.509069 0.311035Z" fill="black"/>
<path opacity="0.921" fill-rule="evenodd" clip-rule="evenodd" d="M11.2537 0.311035C11.6585 0.325855 11.9073 0.533133 11.9999 0.932865C11.9755 1.08929 11.9175 1.23024 11.8258 1.35571C11.1874 1.99412 10.5489 2.63253 9.91055 3.27094C9.47338 3.54535 9.13341 3.45411 8.89075 2.99734C8.84538 2.80072 8.87856 2.61832 8.99024 2.45013C9.66182 1.77855 10.3334 1.10698 11.005 0.435401C11.0953 0.397753 11.1781 0.356294 11.2537 0.311035Z" fill="black"/>
<path opacity="0.96" fill-rule="evenodd" clip-rule="evenodd" d="M2.00144 4.14154C4.65461 4.13324 7.30779 4.14154 9.96086 4.16642C10.112 4.21771 10.2364 4.30894 10.334 4.44002C10.4159 6.3274 10.4325 8.21776 10.3837 10.1111C9.9227 10.6717 9.42524 11.2023 8.89131 11.703C8.87475 14.8038 8.85813 17.9047 8.84157 21.0056C8.78351 21.1962 8.65915 21.3206 8.46847 21.3787C6.81027 21.4118 5.15203 21.4118 3.49383 21.3787C3.30315 21.3206 3.17879 21.1962 3.12073 21.0056C3.10417 17.9047 3.08755 14.8038 3.07099 11.703C2.53706 11.2023 2.0396 10.6717 1.5786 10.1111C1.54542 8.27049 1.54542 6.42988 1.5786 4.58926C1.66257 4.38107 1.8035 4.23183 2.00144 4.14154ZM2.74764 5.33546C4.9033 5.33546 7.059 5.33546 9.21466 5.33546C9.21466 5.70025 9.21466 6.06509 9.21466 6.42988C7.059 6.42988 4.9033 6.42988 2.74764 6.42988C2.74764 6.06509 2.74764 5.70025 2.74764 5.33546ZM2.74764 7.62379C4.9033 7.62379 7.059 7.62379 9.21466 7.62379C9.22297 8.32044 9.21466 9.01689 9.18979 9.71314C8.70889 10.194 8.22804 10.6749 7.74715 11.1558C7.73058 11.2055 7.71397 11.2553 7.6974 11.305C7.67253 14.2732 7.66422 17.2414 7.67253 20.2096C6.54493 20.2096 5.41737 20.2096 4.28977 20.2096C4.29808 17.2414 4.28977 14.2732 4.2649 11.305C4.24833 11.2553 4.23172 11.2055 4.21515 11.1558C3.73426 10.6749 3.25341 10.194 2.77251 9.71314C2.74764 9.01689 2.73933 8.32044 2.74764 7.62379Z" fill="black"/>
<path opacity="0.93" fill-rule="evenodd" clip-rule="evenodd" d="M5.73248 13.1456C6.43222 13.0836 6.77213 13.3986 6.75228 14.0908C6.58056 14.6079 6.22408 14.7986 5.68274 14.6628C5.13175 14.3132 5.04882 13.8738 5.434 13.3446C5.53673 13.2771 5.63622 13.2107 5.73248 13.1456Z" fill="black"/>
</svg>
